<svg width="513" height="513" viewBox="0 0 513 513" fill="none" xmlns="http://www.w3.org/2000/svg">
<path d="M256.333 512.353C324.228 512.353 389.343 485.382 437.352 437.372C485.362 389.363 512.333 324.248 512.333 256.353C512.333 188.458 485.362 123.343 437.352 75.3337C389.343 27.3244 324.228 0.353027 256.333 0.353027C188.437 0.353027 123.323 27.3244 75.3136 75.3337C27.3042 123.343 0.332886 188.458 0.332886 256.353C0.332886 324.248 27.3042 389.363 75.3136 437.372C123.323 485.382 188.437 512.353 256.333 512.353ZM232.333 344.353V280.353H168.333C155.033 280.353 144.333 269.653 144.333 256.353C144.333 243.053 155.033 232.353 168.333 232.353H232.333V168.353C232.333 155.053 243.033 144.353 256.333 144.353C269.633 144.353 280.333 155.053 280.333 168.353V232.353H344.333C357.633 232.353 368.333 243.053 368.333 256.353C368.333 269.653 357.633 280.353 344.333 280.353H280.333V344.353C280.333 357.653 269.633 368.353 256.333 368.353C243.033 368.353 232.333 357.653 232.333 344.353Z" fill="white"/>
</svg>
