<svg width="119" height="117" viewBox="0 0 119 117" fill="none" xmlns="http://www.w3.org/2000/svg">
<path d="M50.1401 6.63572L93.4414 31.6357V81.6357L50.1401 106.636L6.83887 81.6357L6.83887 31.6357L50.1401 6.63572Z" fill="url(#paint0_radial_54_31)"/>
<path d="M8.83887 32.7904L50.1401 8.94512L91.4414 32.7904V80.481L50.1401 104.326L8.83887 80.481L8.83887 32.7904Z" stroke="#193531" stroke-opacity="0.44" stroke-width="4"/>
<rect x="66.4536" y="32.0477" width="46.2624" height="50" fill="white"/>
<path d="M93.1795 47.9568L88.0886 49.3205C87.9067 48.5023 87.5886 47.7144 87.134 46.9568C86.6946 46.1841 86.0128 45.5553 85.0886 45.0705C84.1795 44.5705 82.937 44.3205 81.3613 44.3205C79.2249 44.3205 77.3689 44.8129 75.7931 45.7977C74.2173 46.7674 73.3158 48.0023 73.0886 49.5023C72.8613 50.8205 73.1643 51.8735 73.9976 52.6614C74.831 53.4493 76.2249 54.0932 78.1795 54.5932L83.1795 55.8659C86.1795 56.6387 88.3158 57.7977 89.5886 59.3432C90.8764 60.8735 91.3158 62.8659 90.9067 65.3205C90.5734 67.3205 89.7022 69.1084 88.2931 70.6841C86.884 72.2599 85.081 73.5023 82.884 74.4114C80.687 75.3205 78.2401 75.775 75.5431 75.775C71.9522 75.775 69.1189 75.0023 67.0431 73.4568C64.9673 71.8962 63.8613 69.6387 63.7249 66.6841L69.0886 65.4114C69.2249 67.275 69.8916 68.6841 71.0886 69.6387C72.3007 70.578 73.9976 71.0477 76.1795 71.0477C78.6795 71.0477 80.7628 70.5174 82.4295 69.4568C84.0961 68.3811 85.0431 67.0932 85.2704 65.5932C85.4976 64.3659 85.2552 63.3432 84.5431 62.525C83.8461 61.7068 82.634 61.0932 80.9067 60.6841L75.3613 59.3205C72.2704 58.5477 70.1037 57.3659 68.8613 55.775C67.634 54.1841 67.2249 52.1841 67.634 49.775C67.9673 47.8053 68.8158 46.0629 70.1795 44.5477C71.5583 43.0326 73.2855 41.8432 75.3613 40.9796C77.4522 40.1159 79.7249 39.6841 82.1795 39.6841C85.634 39.6841 88.2173 40.4417 89.9295 41.9568C91.6416 43.4568 92.7249 45.4568 93.1795 47.9568ZM118.344 40.1387L117.617 44.6841H99.5261L100.253 40.1387H118.344ZM106.89 31.775H112.253L106.708 65.0477C106.465 66.5629 106.503 67.6993 106.822 68.4568C107.155 69.1993 107.655 69.6993 108.322 69.9568C109.003 70.1993 109.738 70.3205 110.526 70.3205C111.117 70.3205 111.602 70.2902 111.981 70.2296C112.359 70.1538 112.662 70.0932 112.89 70.0477L113.253 74.8659C112.844 75.0023 112.291 75.1387 111.594 75.275C110.912 75.4265 110.072 75.5023 109.072 75.5023C107.556 75.5023 106.132 75.1765 104.799 74.525C103.465 73.8735 102.443 72.8811 101.731 71.5477C101.018 70.2144 100.829 68.5326 101.162 66.5023L106.89 31.775Z" fill="#193531" fill-opacity="0.44"/>
<path d="M60.4536 23.5576L48.8627 93.3758H40.4082L50.4991 32.4213H50.09L31.1354 43.7394L32.6354 35.1485L51.9991 23.5576H60.4536Z" fill="#193531" fill-opacity="0.44"/>
<defs>
<radialGradient id="paint0_radial_54_31" cx="0" cy="0" r="1" gradientUnits="userSpaceOnUse" gradientTransform="translate(50.1401 56.6357) rotate(90) scale(50)">
<stop stop-color="white"/>
<stop offset="1" stop-color="white" stop-opacity="0"/>
</radialGradient>
</defs>
</svg>
