<svg width="120" height="100" viewBox="0 0 120 100" fill="none" xmlns="http://www.w3.org/2000/svg">
<rect x="1.42725" y="1" width="98" height="98" fill="#F4D03F" stroke="#943126" stroke-width="2"/>
<path d="M58.4272 32.0909L52.6318 67H48.4045L53.45 36.5227H53.2454L43.7682 42.1818L44.5182 37.8864L54.2 32.0909H58.4272Z" fill="#943126"/>
<path d="M99.7065 44.9417L95.8883 45.9645C95.752 45.3508 95.5133 44.7599 95.1724 44.1917C94.8429 43.6122 94.3315 43.1406 93.6383 42.777C92.9565 42.402 92.0247 42.2145 90.8429 42.2145C89.2406 42.2145 87.8485 42.5838 86.6667 43.3224C85.4849 44.0497 84.8088 44.9758 84.6383 46.1008C84.4679 47.0895 84.6951 47.8792 85.3201 48.4701C85.9451 49.0611 86.9906 49.544 88.4565 49.919L92.2065 50.8736C94.4565 51.4531 96.0588 52.3224 97.0133 53.4815C97.9792 54.6292 98.3088 56.1236 98.002 57.9645C97.752 59.4645 97.0985 60.8054 96.0417 61.9872C94.9849 63.169 93.6326 64.1008 91.9849 64.7826C90.3372 65.4645 88.502 65.8054 86.4792 65.8054C83.786 65.8054 81.661 65.2258 80.1042 64.0667C78.5474 62.8963 77.7179 61.2031 77.6156 58.9872L81.6383 58.0326C81.7406 59.4304 82.2406 60.4872 83.1383 61.2031C84.0474 61.9076 85.3201 62.2599 86.9565 62.2599C88.8315 62.2599 90.394 61.8622 91.644 61.0667C92.894 60.2599 93.6042 59.294 93.7747 58.169C93.9451 57.2486 93.7633 56.4815 93.2292 55.8679C92.7065 55.2542 91.7974 54.794 90.502 54.4872L86.3429 53.4645C84.0247 52.8849 82.3997 51.9986 81.4679 50.8054C80.5474 49.6122 80.2406 48.1122 80.5474 46.3054C80.7974 44.8281 81.4338 43.5213 82.4565 42.3849C83.4906 41.2486 84.786 40.3565 86.3429 39.7088C87.911 39.0611 89.6156 38.7372 91.4565 38.7372C94.0474 38.7372 95.9849 39.3054 97.269 40.4417C98.5531 41.5667 99.3656 43.0667 99.7065 44.9417ZM118.58 39.0781L118.035 42.4872H104.466L105.012 39.0781H118.58ZM109.989 32.8054H114.012L109.853 57.7599C109.671 58.8963 109.699 59.7486 109.938 60.3167C110.188 60.8736 110.563 61.2486 111.063 61.4417C111.574 61.6236 112.126 61.7145 112.716 61.7145C113.16 61.7145 113.523 61.6917 113.807 61.6463C114.091 61.5895 114.319 61.544 114.489 61.5099L114.762 65.1236C114.455 65.2258 114.04 65.3281 113.518 65.4304C113.006 65.544 112.376 65.6008 111.626 65.6008C110.489 65.6008 109.421 65.3565 108.421 64.8679C107.421 64.3792 106.654 63.6349 106.12 62.6349C105.586 61.6349 105.444 60.3736 105.694 58.8508L109.989 32.8054Z" fill="#943126"/>
</svg>
