<svg width="146" height="118" viewBox="0 0 146 118" fill="none" xmlns="http://www.w3.org/2000/svg">
<rect x="2.92725" y="11.5" width="95" height="95" fill="#F4D03F" stroke="#943126" stroke-width="5"/>
<rect x="41.3481" y="31.0179" width="59.0791" height="63.8521" fill="#F4D03F"/>
<path d="M105.975 52.4936L98.3382 54.539C98.0654 53.3118 97.5882 52.13 96.9063 50.9936C96.2472 49.8345 95.2245 48.8913 93.8382 48.164C92.4745 47.414 90.6109 47.039 88.2472 47.039C85.0427 47.039 82.2586 47.7777 79.895 49.255C77.5313 50.7095 76.1791 52.5618 75.8382 54.8118C75.4972 56.789 75.9518 58.3686 77.2018 59.5504C78.4518 60.7322 80.5427 61.6981 83.4745 62.4481L90.9745 64.3572C95.4745 65.5163 98.6791 67.255 100.588 69.5731C102.52 71.8686 103.179 74.8572 102.565 78.539C102.065 81.539 100.759 84.2209 98.645 86.5845C96.5313 88.9481 93.8268 90.8118 90.5313 92.1754C87.2359 93.5391 83.5654 94.2209 79.52 94.2209C74.1336 94.2209 69.8836 93.0618 66.77 90.7436C63.6563 88.4027 61.9972 85.0163 61.7927 80.5845L69.8382 78.6754C70.0427 81.4709 71.0427 83.5845 72.8382 85.0163C74.6563 86.4254 77.2018 87.13 80.4745 87.13C84.2245 87.13 87.3495 86.3345 89.8495 84.7436C92.3495 83.13 93.77 81.1981 94.1109 78.9481C94.4518 77.1072 94.0882 75.5731 93.02 74.3459C91.9745 73.1186 90.1563 72.1981 87.5654 71.5845L79.2472 69.539C74.6109 68.38 71.3609 66.6072 69.4972 64.2209C67.6563 61.8345 67.0427 58.8345 67.6563 55.2209C68.1563 52.2663 69.4291 49.6527 71.4745 47.38C73.5427 45.1072 76.1336 43.3231 79.2472 42.0277C82.3836 40.7322 85.7927 40.0845 89.4745 40.0845C94.6563 40.0845 98.5313 41.2209 101.1 43.4936C103.668 45.7436 105.293 48.7436 105.975 52.4936ZM143.722 40.7663L142.631 47.5845H115.494L116.585 40.7663H143.722ZM126.54 28.2209H134.585L126.267 78.13C125.903 80.4027 125.96 82.1072 126.438 83.2436C126.938 84.3572 127.688 85.1072 128.688 85.4936C129.71 85.8572 130.813 86.039 131.994 86.039C132.881 86.039 133.608 85.9936 134.176 85.9027C134.744 85.789 135.199 85.6981 135.54 85.63L136.085 92.8572C135.472 93.0618 134.642 93.2663 133.597 93.4709C132.574 93.6981 131.313 93.8118 129.813 93.8118C127.54 93.8118 125.403 93.3231 123.403 92.3459C121.403 91.3686 119.869 89.88 118.801 87.88C117.733 85.88 117.449 83.3572 117.949 80.3118L126.54 28.2209Z" fill="#943126"/>
<path d="M60.7407 25.0519L49.1498 94.87H40.6953L50.7862 33.9155H50.3771L31.4225 45.2337L32.9225 36.6428L52.2862 25.0519H60.7407Z" fill="#943126"/>
</svg>
