<svg width="48" height="34" viewBox="0 0 48 34" fill="none" xmlns="http://www.w3.org/2000/svg">
<path d="M7.58416 9.16552C7.6691 9.23691 7.74199 9.31419 7.81373 9.401C7.83701 9.42867 7.8603 9.45633 7.88429 9.48484C8.04967 9.7405 8.1097 9.9847 8.12161 10.2952C8.13986 10.2826 8.15812 10.2701 8.17693 10.2571C8.51492 10.0367 8.82846 10.0005 9.21629 10.0717C9.57027 10.1766 9.80776 10.3859 10.0187 10.7068C10.16 11.0013 10.1906 11.2945 10.1976 11.6226C10.1988 11.66 10.2 11.6974 10.2012 11.736C10.204 11.827 10.2064 11.9181 10.2083 12.0091C10.2335 11.9961 10.2587 11.9831 10.2846 11.9697C10.318 11.9527 10.3514 11.9358 10.3858 11.9183C10.4187 11.9015 10.4517 11.8846 10.4856 11.8672C10.8122 11.7208 11.1464 11.7671 11.4737 11.8878C11.6219 11.9552 11.7343 12.0381 11.8504 12.1582C11.8718 12.18 11.8932 12.2019 11.9153 12.2244C12.2641 12.6163 12.2465 13.0867 12.2444 13.5975C12.2445 13.6711 12.2448 13.7447 12.2451 13.8183C12.2457 14.0173 12.2455 14.2163 12.245 14.4153C12.2447 14.6243 12.245 14.8334 12.2452 15.0424C12.2455 15.3935 12.2451 15.7446 12.2445 16.0958C12.2437 16.5005 12.244 16.9051 12.2447 17.3098C12.2454 17.6584 12.2454 18.0069 12.2451 18.3554C12.2449 18.5631 12.2448 18.7707 12.2453 18.9784C12.2457 19.1739 12.2454 19.3695 12.2446 19.565C12.2445 19.6363 12.2445 19.7076 12.2448 19.7789C12.2487 20.7925 11.9388 21.6 11.3372 22.3671C11.3259 22.3794 11.3146 22.3917 11.303 22.4044C11.2993 22.5093 11.2977 22.6132 11.2976 22.7181C11.2974 22.751 11.2973 22.7839 11.2971 22.8178C11.2967 22.8895 11.2964 22.9612 11.2962 23.0328C11.2958 23.1462 11.2951 23.2595 11.2944 23.3729C11.2923 23.6952 11.2904 24.0176 11.2893 24.34C11.2886 24.5369 11.2874 24.7338 11.2858 24.9308C11.2854 25.006 11.2851 25.0812 11.285 25.1564C11.2848 25.2615 11.284 25.3665 11.2831 25.4716C11.2832 25.5029 11.2833 25.5341 11.2834 25.5663C11.2806 25.773 11.2806 25.773 11.2345 25.8588C11.1246 25.9359 11.0071 25.9221 10.8805 25.9209C10.851 25.9211 10.8215 25.9213 10.7911 25.9215C10.6919 25.9219 10.5928 25.9216 10.4936 25.9212C10.4226 25.9214 10.3516 25.9216 10.2807 25.9218C10.0877 25.9223 9.89465 25.9221 9.70163 25.9218C9.49992 25.9215 9.29822 25.9217 9.09651 25.9219C8.75774 25.9221 8.41897 25.9219 8.0802 25.9213C7.68816 25.9207 7.29613 25.9209 6.90409 25.9215C6.5679 25.922 6.23171 25.9221 5.89552 25.9218C5.69455 25.9216 5.49358 25.9216 5.29261 25.922C5.1037 25.9223 4.9148 25.9221 4.72589 25.9214C4.65642 25.9213 4.58696 25.9213 4.5175 25.9216C4.42293 25.9219 4.32839 25.9215 4.23382 25.9209C4.2061 25.9212 4.17839 25.9214 4.14983 25.9217C3.96463 25.9196 3.96463 25.9196 3.88112 25.8546C3.79558 25.7113 3.80832 25.5818 3.8108 25.416C3.81147 25.3506 3.81212 25.2852 3.81275 25.2199C3.81313 25.185 3.81351 25.1502 3.81391 25.1143C3.816 24.89 3.816 24.6656 3.81639 24.4413C3.81685 24.2448 3.81802 24.0484 3.82081 23.852C3.8721 22.6927 3.8721 22.6927 3.41755 21.6875C3.34098 21.589 3.28555 21.4829 3.22602 21.3713C3.18455 21.2981 3.14303 21.2248 3.10148 21.1516C3.05471 21.0689 3.00794 20.9863 2.96117 20.9037C2.93774 20.8624 2.91432 20.821 2.89018 20.7784C2.77379 20.573 2.65752 20.3674 2.54131 20.1619C2.50731 20.1017 2.50731 20.1017 2.47262 20.0404C2.30304 19.7402 2.13469 19.4392 1.9667 19.138C1.83573 18.9034 1.70359 18.6696 1.57064 18.4363C1.39362 18.1257 1.21841 17.8139 1.04423 17.5014C0.950054 17.3324 0.855663 17.1636 0.760321 16.9954C0.743305 16.9654 0.726289 16.9353 0.708758 16.9043C0.677438 16.849 0.646032 16.7937 0.614517 16.7385C0.346769 16.265 0.178929 15.7848 0.270843 15.2191C0.385422 14.7121 0.617829 14.3318 1.01675 14.0412C1.39447 13.806 1.82613 13.731 2.25321 13.823C2.73904 13.9741 3.08142 14.2493 3.34067 14.7207C3.35313 14.7431 3.36558 14.7655 3.37842 14.7885C3.40882 14.8431 3.43904 14.8978 3.46922 14.9526C3.46952 14.8838 3.46952 14.8838 3.46983 14.8137C3.47179 14.3806 3.47428 13.9476 3.47729 13.5145C3.47881 13.2919 3.48016 13.0693 3.48107 12.8467C3.48197 12.6317 3.48335 12.4167 3.48507 12.2017C3.48564 12.1198 3.48603 12.038 3.48625 11.9561C3.48658 11.8411 3.48754 11.7261 3.48864 11.611C3.48857 11.5608 3.48857 11.5608 3.48849 11.5095C3.49419 11.0863 3.61707 10.747 3.88106 10.4368C4.15438 10.1523 4.47654 10.0213 4.85347 10.0261C5.08986 10.0487 5.31604 10.1308 5.52175 10.258C5.52717 10.2296 5.53259 10.2012 5.53818 10.1719C5.6301 9.72892 5.7896 9.3709 6.15194 9.12011C6.61893 8.84999 7.13712 8.83363 7.58416 9.16552ZM6.27808 9.73706C6.04748 10.0852 6.05906 10.4722 6.05981 10.8852C6.05966 10.9405 6.05948 10.9958 6.05927 11.0511C6.05887 11.1696 6.05869 11.288 6.05865 11.4065C6.05859 11.5937 6.05797 11.7809 6.05726 11.9682C6.05558 12.4329 6.05452 12.8977 6.05379 13.3624C6.05323 13.7243 6.05245 14.0862 6.05095 14.4481C6.05021 14.6343 6.04993 14.8205 6.05001 15.0067C6.04995 15.1223 6.04947 15.2379 6.04887 15.3535C6.04868 15.4071 6.04867 15.4608 6.04884 15.5145C6.04905 15.5876 6.04857 15.6607 6.04806 15.7338C6.04795 15.7952 6.04795 15.7952 6.04785 15.8579C6.03488 15.9586 6.03488 15.9586 5.98915 16.0278C5.90126 16.0936 5.83065 16.0821 5.727 16.0704C5.69313 16.0458 5.65927 16.0212 5.62437 15.9959C5.6114 15.9166 5.6114 15.9166 5.61119 15.8166C5.61086 15.7787 5.61053 15.7408 5.61019 15.7018C5.61035 15.6601 5.61051 15.6184 5.61067 15.5754C5.61043 15.5316 5.61019 15.4878 5.60994 15.4427C5.60938 15.3223 5.60926 15.2019 5.60931 15.0814C5.60925 14.9553 5.60855 14.8292 5.6079 14.703C5.6065 14.4091 5.60587 14.1151 5.6053 13.8212C5.60453 13.448 5.60338 13.0749 5.60163 12.7017C5.60106 12.5762 5.60065 12.4507 5.6006 12.3253C5.6005 12.185 5.60001 12.0447 5.59944 11.9044C5.59953 11.8632 5.59962 11.822 5.59971 11.7796C5.5974 11.3985 5.56516 11.0999 5.31649 10.8168C5.09658 10.6172 4.87491 10.6037 4.59811 10.6306C4.38346 10.6949 4.24295 10.8438 4.11919 11.0404C3.99644 11.3014 4.00985 11.5955 4.00617 11.8817C4.0055 11.9249 4.00484 11.9681 4.00415 12.0127C3.99838 12.4117 3.99502 12.8108 3.99248 13.21C3.99058 13.504 3.98735 13.798 3.98237 14.0921C3.97897 14.2999 3.9772 14.5076 3.97655 14.7154C3.97612 14.839 3.97479 14.9624 3.97211 15.086C3.95915 15.7141 4.01387 16.135 4.37779 16.6343C4.44978 16.7358 4.50865 16.8431 4.56885 16.9534C4.58961 16.9903 4.61038 17.0271 4.63178 17.0651C4.66274 17.1203 4.66274 17.1203 4.69432 17.1765C4.83521 17.4273 4.97677 17.6776 5.1222 17.9253C5.14584 17.9658 5.16949 18.0063 5.19385 18.048C5.23892 18.125 5.28425 18.2018 5.3299 18.2784C5.36024 18.3303 5.36024 18.3303 5.39119 18.3833C5.40903 18.4135 5.42686 18.4436 5.44524 18.4746C5.49414 18.5811 5.5113 18.6721 5.52175 18.7903C5.4887 18.8927 5.47453 18.9278 5.38491 18.9766C5.20456 18.9979 5.20456 18.9979 5.11619 18.9221C5.01333 18.7895 4.93687 18.6443 4.85681 18.4945C4.82002 18.4267 4.78318 18.359 4.7463 18.2912C4.72741 18.2565 4.70852 18.2217 4.68906 18.1859C4.60059 18.0245 4.50967 17.8647 4.41852 17.7051C4.38114 17.6396 4.34377 17.574 4.3064 17.5085C4.28718 17.4748 4.26796 17.4411 4.24816 17.4063C4.13847 17.2136 4.02943 17.0204 3.92035 16.8272C3.88617 16.7667 3.88617 16.7667 3.85129 16.705C3.74443 16.5158 3.63765 16.3266 3.53104 16.1372C3.38544 15.8787 3.23948 15.6204 3.09293 15.3624C3.0761 15.3328 3.05928 15.3032 3.04195 15.2726C3.00007 15.1991 2.95787 15.1259 2.91547 15.0527C2.89382 15.0152 2.87217 14.9777 2.84986 14.9391C2.68396 14.6876 2.44564 14.4639 2.16715 14.3797C1.81748 14.3193 1.53671 14.3735 1.23711 14.5847C0.985715 14.7893 0.830822 15.0652 0.766736 15.3997C0.714775 15.8454 0.905917 16.1986 1.11951 16.5617C1.14414 16.6043 1.16871 16.6469 1.19325 16.6895C1.24333 16.7765 1.29356 16.8634 1.34391 16.9501C1.45229 17.1375 1.55735 17.327 1.66258 17.5165C1.8298 17.8164 1.99851 18.1153 2.16834 18.4135C2.31527 18.6715 2.46155 18.9299 2.60759 19.1885C2.63056 19.2292 2.65353 19.2698 2.6772 19.3117C2.724 19.3946 2.7708 19.4775 2.8176 19.5604C2.9547 19.8032 3.09188 20.0459 3.22906 20.2887C3.33461 20.4755 3.44013 20.6623 3.54551 20.8492C3.58246 20.9147 3.61941 20.9802 3.65637 21.0457C3.70245 21.1274 3.74851 21.2091 3.79454 21.2908C3.81564 21.3282 3.83674 21.3656 3.85848 21.4041C3.87667 21.4364 3.89487 21.4686 3.91361 21.5019C3.9363 21.5415 3.95898 21.5811 3.98235 21.622C3.99468 21.6561 4.00701 21.6902 4.01971 21.7253C4.07527 21.8556 4.12233 21.9366 4.22182 22.0318C4.43464 22.109 4.67467 22.08 4.89543 22.0731C4.96458 22.0725 5.03374 22.072 5.10289 22.0718C5.2899 22.0705 5.47679 22.0667 5.66376 22.0623C5.85898 22.0581 6.05421 22.0558 6.24945 22.0534C6.49149 22.0502 6.73351 22.0468 6.97553 22.0424C7.4946 22.0331 8.01309 22.0321 8.5322 22.0378C8.7539 22.04 8.97562 22.0408 9.19733 22.0416C9.37344 22.0423 9.54949 22.0438 9.72558 22.0471C9.89068 22.0502 10.0557 22.0509 10.2208 22.0499C10.2809 22.05 10.3411 22.0509 10.4013 22.0527C10.7089 22.0704 10.7089 22.0704 10.9845 21.9467C11.1024 21.8164 11.186 21.6686 11.2688 21.5102C11.2983 21.4612 11.3278 21.4122 11.3573 21.3632C11.6841 20.7305 11.7582 20.1587 11.7571 19.4437C11.7573 19.3753 11.7575 19.3068 11.7577 19.2383C11.7581 19.0536 11.7581 18.8688 11.758 18.6841C11.758 18.5295 11.7582 18.3748 11.7583 18.2202C11.7587 17.8553 11.7587 17.4905 11.7585 17.1256C11.7583 16.7499 11.7587 16.3742 11.7595 15.9985C11.7601 15.6751 11.7603 15.3517 11.7602 15.0283C11.7601 14.8355 11.7602 14.6427 11.7607 14.4499C11.7611 14.2686 11.761 14.0874 11.7606 13.9062C11.7605 13.8399 11.7606 13.7736 11.7609 13.7073C11.7673 13.0776 11.7673 13.0776 11.5083 12.5308C11.2784 12.3443 11.0773 12.2691 10.7899 12.3072C10.571 12.3819 10.4188 12.5011 10.2821 12.7002C10.1531 12.9983 10.1641 13.3209 10.1637 13.6431C10.1636 13.7291 10.163 13.815 10.1623 13.901C10.1604 14.1452 10.1594 14.3893 10.1585 14.6335C10.158 14.7835 10.1569 14.9334 10.1556 15.0833C10.1552 15.1403 10.155 15.1974 10.155 15.2544C10.155 15.3338 10.1544 15.4131 10.1536 15.4925C10.1535 15.5376 10.1533 15.5828 10.1531 15.6293C10.1488 15.6642 10.1444 15.6991 10.1399 15.735C10.0212 15.8212 9.97154 15.8254 9.83204 15.8096C9.75835 15.7503 9.73256 15.7171 9.71645 15.618C9.71638 15.587 9.71631 15.5559 9.71624 15.5239C9.71591 15.4882 9.71558 15.4525 9.71524 15.4157C9.71539 15.3765 9.71555 15.3374 9.71571 15.2971C9.71547 15.2558 9.71523 15.2145 9.71499 15.172C9.7143 15.0351 9.71432 14.8982 9.71432 14.7614C9.71391 14.6663 9.71346 14.5711 9.71295 14.476C9.71158 14.1995 9.71091 13.9229 9.71034 13.6464C9.70953 13.2712 9.70817 12.8961 9.70633 12.521C9.70577 12.3811 9.70564 12.2413 9.70554 12.1014C9.70521 12.0151 9.70486 11.9289 9.70449 11.8426C9.70457 11.8039 9.70466 11.7652 9.70475 11.7254C9.70245 11.3672 9.67587 11.0596 9.43504 10.7934C9.25735 10.6161 9.09193 10.5354 8.8448 10.5447C8.59279 10.5838 8.43123 10.7193 8.27247 10.9286C8.09229 11.207 8.11639 11.5236 8.11567 11.8518C8.11533 11.9171 8.11533 11.9171 8.11498 11.9838C8.1145 12.0779 8.11409 12.1721 8.11375 12.2663C8.11318 12.4152 8.1124 12.5641 8.11153 12.713C8.1091 13.1362 8.10704 13.5593 8.1053 13.9825C8.10433 14.2166 8.10312 14.4507 8.10165 14.6848C8.10088 14.8086 8.10029 14.9324 8.09992 15.0561C8.09951 15.1939 8.09868 15.3316 8.09776 15.4693C8.09774 15.5105 8.09772 15.5516 8.0977 15.594C8.0972 15.65 8.0972 15.65 8.0967 15.7071C8.09655 15.7397 8.09641 15.7723 8.09626 15.8058C8.0874 15.8841 8.0874 15.8841 8.01898 15.9586C7.95484 15.9685 7.95484 15.9685 7.88215 15.9679C7.85816 15.9681 7.83417 15.9683 7.80945 15.9685C7.74531 15.9586 7.74531 15.9586 7.6769 15.8841C7.66813 15.7886 7.66813 15.7886 7.66783 15.6652C7.66755 15.6186 7.66726 15.5719 7.66697 15.5239C7.667 15.4719 7.66703 15.4199 7.66707 15.3679C7.66687 15.3134 7.66663 15.2588 7.66637 15.2043C7.66586 15.0867 7.66556 14.969 7.66542 14.8514C7.66519 14.6652 7.66444 14.479 7.66362 14.2928C7.66194 13.8972 7.66084 13.5016 7.65979 13.1059C7.65866 12.6797 7.65743 12.2535 7.65554 11.8273C7.65475 11.6425 7.65428 11.4576 7.65406 11.2727C7.65385 11.1573 7.65337 11.0419 7.65281 10.9264C7.65261 10.8732 7.65253 10.8199 7.65257 10.7666C7.66001 10.1863 7.66001 10.1863 7.40323 9.69908C7.04953 9.40865 6.60356 9.35839 6.27808 9.73706ZM4.35865 22.5907C4.35865 22.7874 4.35865 22.9842 4.35865 23.1868C4.40176 23.187 4.44486 23.1871 4.48928 23.1873C4.89596 23.1886 5.30263 23.1908 5.70931 23.1937C5.91838 23.1952 6.12744 23.1964 6.33651 23.1969C6.53836 23.1975 6.74019 23.1988 6.94204 23.2006C7.01896 23.2011 7.09588 23.2014 7.1728 23.2014C7.28074 23.2015 7.38864 23.2025 7.49656 23.2038C7.54403 23.2035 7.54403 23.2035 7.59245 23.2032C7.83623 23.2074 8.02353 23.2692 8.20072 23.457C8.3527 23.7267 8.39377 23.9533 8.32686 24.2674C8.28811 24.353 8.245 24.4156 8.19003 24.4909C8.19003 24.5155 8.19003 24.5401 8.19003 24.5654C7.92828 24.7127 7.69316 24.7683 7.39948 24.7678C7.3664 24.7682 7.33332 24.7686 7.29924 24.769C7.19096 24.7701 7.0827 24.7704 6.97441 24.7708C6.89892 24.7714 6.82343 24.7721 6.74794 24.7728C6.55005 24.7746 6.35215 24.7757 6.15424 24.7767C5.95198 24.7778 5.74973 24.7795 5.54747 24.7812C5.1512 24.7844 4.75493 24.7869 4.35865 24.789C4.35865 24.9857 4.35865 25.1824 4.35865 25.3851C6.48096 25.3728 8.60327 25.3605 10.7899 25.3479C10.7899 24.438 10.7899 23.5281 10.7899 22.5907C8.66758 22.5907 6.54527 22.5907 4.35865 22.5907ZM4.35865 23.7457C4.35865 23.9056 4.35865 24.0654 4.35865 24.2301C4.79339 24.2335 5.22813 24.2362 5.66288 24.2378C5.86474 24.2386 6.0666 24.2396 6.26846 24.2413C6.4632 24.243 6.65794 24.2438 6.85269 24.2442C6.92705 24.2445 7.00142 24.245 7.07578 24.2459C7.1798 24.2469 7.2838 24.2471 7.38782 24.247C7.43411 24.2478 7.43411 24.2478 7.48133 24.2486C7.65153 24.2477 7.65153 24.2477 7.79986 24.163C7.85933 24.0783 7.85933 24.0783 7.8458 23.946C7.82485 23.8107 7.82485 23.8107 7.7111 23.7457C7.64471 23.7348 7.64471 23.7348 7.57149 23.7368C7.54314 23.7367 7.51479 23.7366 7.48558 23.7365C7.45461 23.7367 7.42363 23.737 7.39171 23.7373C7.34264 23.7373 7.34264 23.7373 7.29258 23.7372C7.18429 23.7373 7.07602 23.7379 6.96773 23.7384C6.89272 23.7386 6.8177 23.7387 6.74268 23.7388C6.54512 23.7391 6.34755 23.7398 6.14999 23.7406C5.94844 23.7414 5.74688 23.7417 5.54533 23.7421C5.14977 23.7429 4.75421 23.7442 4.35865 23.7457Z" fill="white"/>
<path d="M33.1448 30.1418C33.2941 30.1583 33.4424 30.1601 33.5925 30.1608C33.6358 30.1612 33.6791 30.1617 33.7236 30.1621C33.815 30.1628 33.9064 30.1631 33.9977 30.1632C34.1373 30.1637 34.2767 30.166 34.4163 30.1683C34.5051 30.1687 34.594 30.169 34.6829 30.1692C34.7453 30.1706 34.7453 30.1706 34.809 30.172C34.9892 30.1705 35.1367 30.1662 35.2817 30.0511C35.3783 29.9264 35.3899 29.8296 35.3952 29.6737C35.3968 29.6282 35.3984 29.5826 35.4001 29.5356C35.4051 29.2804 35.4067 29.0252 35.4065 28.7699C35.4065 28.7096 35.4066 28.6493 35.4066 28.5889C35.4067 28.4266 35.4067 28.2643 35.4066 28.1021C35.4065 27.9314 35.4066 27.7607 35.4066 27.5901C35.4067 27.3037 35.4066 27.0174 35.4065 26.7311C35.4063 26.4009 35.4064 26.0707 35.4065 25.7405C35.4067 25.4559 35.4067 25.1713 35.4066 24.8867C35.4066 24.7172 35.4066 24.5477 35.4067 24.3782C35.4067 24.2189 35.4067 24.0596 35.4065 23.9002C35.4065 23.8421 35.4065 23.7839 35.4066 23.7257C35.4068 23.4452 35.405 23.1663 35.3807 22.8867C35.3736 22.7579 35.3872 22.635 35.403 22.5071C35.5313 22.4565 35.6368 22.4477 35.7743 22.45C35.8343 22.4506 35.8343 22.4506 35.8955 22.4513C35.937 22.452 35.9785 22.4527 36.0213 22.4534C36.1036 22.4548 36.1859 22.4559 36.2683 22.4567C36.3047 22.4574 36.3411 22.458 36.3786 22.4586C36.5195 22.4512 36.6114 22.4182 36.7286 22.3408C36.9263 22.0605 36.8318 21.5555 36.8317 21.22C36.8318 21.1581 36.8319 21.0962 36.832 21.0343C36.8323 20.865 36.8324 20.6957 36.8325 20.5264C36.8326 20.3435 36.8328 20.1606 36.8331 19.9777C36.8336 19.5366 36.8339 19.0955 36.8341 18.6544C36.8342 18.4465 36.8344 18.2386 36.8345 18.0307C36.835 17.3394 36.8354 16.6481 36.8355 15.9568C36.8356 15.7776 36.8357 15.5985 36.8357 15.4194C36.8357 15.3749 36.8357 15.3303 36.8357 15.2845C36.836 14.5627 36.8366 13.8409 36.8375 13.1191C36.8384 12.3775 36.8389 11.6359 36.839 10.8943C36.839 10.4781 36.8393 10.0619 36.84 9.64575C36.8405 9.29151 36.8408 8.93727 36.8405 8.58303C36.8404 8.40238 36.8404 8.22174 36.8409 8.04109C36.8414 7.87555 36.8414 7.71001 36.841 7.54447C36.8409 7.48476 36.841 7.42505 36.8414 7.36533C36.8443 6.78121 36.7732 6.3429 36.3583 5.91175C35.7526 5.30393 35.242 5.24313 34.4058 5.23994C34.322 5.23987 34.2383 5.23989 34.1545 5.24001C34.0269 5.24009 33.8994 5.23946 33.7718 5.23878C33.6896 5.23872 33.6073 5.2387 33.5251 5.23873C33.4687 5.23836 33.4687 5.23836 33.4113 5.23798C33.0907 5.23947 32.775 5.27553 32.4812 5.41147C32.4511 5.42509 32.4211 5.43871 32.3901 5.45274C31.9839 5.64747 31.6408 6.03324 31.4837 6.45391C31.3339 6.97021 31.3666 7.53555 31.3672 8.06858C31.3671 8.12925 31.3671 8.18991 31.3671 8.25058C31.3669 8.4159 31.367 8.58123 31.3671 8.74655C31.3671 8.92536 31.367 9.10417 31.367 9.28298C31.3669 9.63262 31.3669 9.98226 31.367 10.3319C31.367 10.6159 31.367 10.9 31.367 11.184C31.367 11.2448 31.367 11.2448 31.367 11.3067C31.367 11.3889 31.367 11.4712 31.367 11.5534C31.3669 12.3235 31.367 13.0936 31.3671 13.8637C31.3672 14.5247 31.3672 15.1858 31.3671 15.8468C31.3669 16.6148 31.3669 17.3828 31.367 18.1508C31.367 18.2326 31.367 18.3144 31.367 18.3962C31.367 18.4365 31.367 18.4767 31.367 18.5182C31.367 18.8022 31.367 19.0861 31.3669 19.3701C31.3669 19.7157 31.3669 20.0614 31.367 20.4071C31.3671 20.5835 31.3671 20.7599 31.367 20.9363C31.3669 21.0976 31.367 21.259 31.3671 21.4203C31.3672 21.4788 31.3671 21.5373 31.3671 21.5958C31.367 21.6751 31.3671 21.7543 31.3672 21.8335C31.3672 21.8776 31.3672 21.9217 31.3672 21.9671C31.3719 22.118 31.3893 22.1994 31.4748 22.3257C31.6525 22.4928 31.8943 22.4558 32.1233 22.4534C32.1822 22.4536 32.2411 22.4539 32.3 22.4543C32.4562 22.4552 32.6123 22.4546 32.7685 22.4534C32.8318 22.6025 32.8293 22.7471 32.828 22.9061C32.828 22.9502 32.828 22.9502 32.8279 22.9952C32.8277 23.0938 32.8272 23.1924 32.8267 23.2909C32.8265 23.3616 32.8263 23.4322 32.8262 23.5029C32.8258 23.6551 32.8253 23.8072 32.8247 23.9594C32.8237 24.2 32.8232 24.4406 32.8227 24.6812C32.8214 25.3654 32.8195 26.0496 32.8171 26.7337C32.8158 27.1116 32.8148 27.4894 32.8143 27.8673C32.814 28.1065 32.8131 28.3457 32.8119 28.5849C32.8113 28.7337 32.8111 28.8825 32.8111 29.0313C32.811 29.1003 32.8107 29.1693 32.8102 29.2383C32.8095 29.3325 32.8095 29.4267 32.8097 29.5209C32.8093 29.5482 32.809 29.5755 32.8086 29.6036C32.8105 29.8738 32.8788 30.056 33.1448 30.1418ZM33.516 29.2427C33.5163 29.1829 33.517 29.123 33.5178 29.0631C33.5182 29.0174 33.5182 29.0174 33.5186 28.9706C33.5192 28.8951 33.5202 28.8195 33.5212 28.7439C33.6543 28.6907 33.7671 28.6839 33.91 28.6849C33.9531 28.6851 33.9962 28.6852 34.0407 28.6854C34.0855 28.6859 34.1303 28.6863 34.1765 28.6868C34.2446 28.6872 34.2446 28.6872 34.3141 28.6875C34.4262 28.6882 34.5382 28.689 34.6503 28.6902C34.666 28.8769 34.6807 29.0621 34.6788 29.2496C34.6783 29.3051 34.6777 29.3605 34.6772 29.416C34.4284 29.4377 34.1825 29.4478 33.9328 29.4479C33.899 29.4482 33.8651 29.4486 33.8302 29.4489C33.7819 29.449 33.7819 29.449 33.7326 29.4491C33.7036 29.4492 33.6745 29.4493 33.6446 29.4494C33.5039 29.4362 33.5209 29.3798 33.516 29.2427ZM33.516 27.7911C33.5163 27.7312 33.517 27.6713 33.5178 27.6115C33.5182 27.5657 33.5182 27.5657 33.5186 27.519C33.5192 27.4434 33.5202 27.3678 33.5212 27.2923C33.6543 27.239 33.7671 27.2322 33.91 27.2332C33.9531 27.2334 33.9962 27.2336 34.0407 27.2338C34.0855 27.2342 34.1303 27.2347 34.1765 27.2351C34.2446 27.2355 34.2446 27.2355 34.3141 27.2359C34.4262 27.2365 34.5382 27.2374 34.6503 27.2385C34.666 27.4252 34.6807 27.6104 34.6788 27.798C34.6783 27.8534 34.6777 27.9089 34.6772 27.9643C34.4284 27.9861 34.1825 27.9961 33.9328 27.9962C33.899 27.9966 33.8651 27.9969 33.8302 27.9972C33.7819 27.9973 33.7819 27.9973 33.7326 27.9974C33.7036 27.9975 33.6745 27.9976 33.6446 27.9977C33.5039 27.9845 33.5209 27.9281 33.516 27.7911ZM33.5182 26.4723C33.5183 26.4432 33.5184 26.414 33.5186 26.384C33.5187 26.3526 33.5188 26.3211 33.5188 26.2887C33.5192 26.2391 33.5192 26.2391 33.5195 26.1884C33.5197 26.1386 33.5197 26.1386 33.5199 26.0877C33.5202 26.0054 33.5207 25.923 33.5212 25.8406C33.6543 25.7874 33.7671 25.7806 33.91 25.7816C33.9531 25.7817 33.9962 25.7819 34.0407 25.7821C34.0855 25.7826 34.1303 25.783 34.1765 25.7835C34.2446 25.7838 34.2446 25.7838 34.3141 25.7842C34.4262 25.7848 34.5382 25.7857 34.6503 25.7868C34.666 25.9736 34.6807 26.1588 34.6788 26.3463C34.6786 26.3781 34.6784 26.4099 34.6781 26.4426C34.6778 26.4657 34.6775 26.4888 34.6772 26.5127C34.5445 26.5655 34.4317 26.573 34.2894 26.5726C34.2463 26.5726 34.2033 26.5725 34.159 26.5725C34.1143 26.5721 34.0696 26.5718 34.0236 26.5715C33.9784 26.5714 33.9332 26.5714 33.8866 26.5714C33.6433 26.6048 33.6433 26.6048 33.5182 26.4723ZM33.5182 25.0207C33.5183 24.9915 33.5184 24.9624 33.5186 24.9324C33.5187 24.9009 33.5188 24.8695 33.5188 24.8371C33.5192 24.7874 33.5192 24.7874 33.5195 24.7367C33.5197 24.6869 33.5197 24.6869 33.5199 24.6361C33.5202 24.5537 33.5207 24.4713 33.5212 24.3889C33.6543 24.3357 33.7671 24.3289 33.91 24.3299C33.9531 24.3301 33.9962 24.3303 34.0407 24.3304C34.0855 24.3309 34.1303 24.3313 34.1765 24.3318C34.2446 24.3322 34.2446 24.3322 34.3141 24.3325C34.4262 24.3332 34.5382 24.3341 34.6503 24.3352C34.666 24.5219 34.6807 24.7071 34.6788 24.8947C34.6786 24.9264 34.6784 24.9582 34.6781 24.991C34.6778 25.0141 34.6775 25.0372 34.6772 25.061C34.5445 25.1139 34.4317 25.1214 34.2894 25.121C34.2463 25.1209 34.2033 25.1209 34.159 25.1208C34.1143 25.1205 34.0696 25.1201 34.0236 25.1198C33.9784 25.1198 33.9332 25.1198 33.8866 25.1197C33.6433 25.1532 33.6433 25.1532 33.5182 25.0207ZM33.5182 23.569C33.5183 23.5399 33.5184 23.5107 33.5186 23.4807C33.5187 23.4492 33.5188 23.4178 33.5188 23.3854C33.5192 23.3357 33.5192 23.3357 33.5195 23.2851C33.5197 23.2352 33.5197 23.2352 33.5199 23.1844C33.5202 23.102 33.5207 23.0196 33.5212 22.9373C33.6543 22.884 33.7671 22.8772 33.91 22.8783C33.9531 22.8784 33.9962 22.8786 34.0407 22.8788C34.0855 22.8792 34.1303 22.8797 34.1765 22.8801C34.2446 22.8805 34.2446 22.8805 34.3141 22.8809C34.4262 22.8815 34.5382 22.8824 34.6503 22.8835C34.666 23.0702 34.6807 23.2554 34.6788 23.443C34.6786 23.4748 34.6784 23.5066 34.6781 23.5393C34.6778 23.5624 34.6775 23.5855 34.6772 23.6093C34.5445 23.6622 34.4317 23.6697 34.2894 23.6693C34.2463 23.6692 34.2033 23.6692 34.159 23.6691C34.1143 23.6688 34.0696 23.6685 34.0236 23.6681C33.9784 23.6681 33.9332 23.6681 33.8866 23.6681C33.6433 23.7015 33.6433 23.7015 33.5182 23.569ZM32.0927 21.4927C32.0925 21.4551 32.0925 21.4551 32.0924 21.4168C32.0922 21.3317 32.0921 21.2466 32.0921 21.1615C32.092 21.1003 32.0918 21.0391 32.0917 20.9779C32.0913 20.8089 32.0911 20.6399 32.0909 20.4708C32.0908 20.3261 32.0905 20.1813 32.0902 20.0366C32.0893 19.5594 32.0888 19.0822 32.0883 18.6051C32.0881 18.4809 32.088 18.3566 32.0879 18.2324C32.087 17.4614 32.0863 16.6904 32.0859 15.9194C32.0858 15.7407 32.0856 15.562 32.0855 15.3832C32.0855 15.3388 32.0855 15.2944 32.0855 15.2486C32.085 14.5292 32.0839 13.8097 32.0825 13.0903C32.0811 12.3521 32.0804 11.6138 32.0802 10.8756C32.08 10.4609 32.0796 10.0463 32.0785 9.63166C32.0776 9.27845 32.0773 8.92525 32.0776 8.57203C32.0777 8.39183 32.0776 8.21163 32.0768 8.03142C32.0761 7.86633 32.0761 7.70126 32.0767 7.53616C32.0768 7.47655 32.0766 7.41693 32.0761 7.35732C32.0732 6.97773 32.1041 6.67183 32.3308 6.35656C32.6072 6.08636 32.8415 5.97128 33.231 5.95752C33.271 5.95609 33.271 5.95609 33.3118 5.95463C33.6215 5.94443 33.9313 5.94053 34.2412 5.93951C34.307 5.9392 34.3729 5.93864 34.4387 5.93786C35.1809 5.92275 35.1809 5.92275 35.8062 6.28012C36.2126 6.69646 36.1328 7.26801 36.1321 7.81053C36.1321 7.87075 36.1321 7.93098 36.1321 7.9912C36.1322 8.15581 36.1321 8.32041 36.1319 8.48501C36.1318 8.66285 36.1319 8.84068 36.1319 9.01852C36.1319 9.32634 36.1318 9.63416 36.1317 9.94198C36.1314 10.387 36.1314 10.8321 36.1313 11.2771C36.1313 11.9993 36.1311 12.7214 36.1308 13.4435C36.1306 14.1449 36.1304 14.8462 36.1303 15.5475C36.1303 15.5908 36.1303 15.634 36.1303 15.6786C36.1302 15.8956 36.1302 16.1126 36.1302 16.3296C36.1299 18.1289 36.1294 19.9282 36.1288 21.7275C36.0732 21.732 36.0177 21.7364 35.9621 21.7408C35.9157 21.7445 35.9157 21.7445 35.8683 21.7483C35.7595 21.7558 35.6515 21.7571 35.5424 21.7561C35.5057 21.7559 35.4689 21.7556 35.431 21.7554C35.404 21.7551 35.377 21.7548 35.3492 21.7544C35.2906 21.5998 35.2641 21.4394 35.235 21.2773C35.2292 21.2457 35.2235 21.2141 35.2175 21.1816C35.1985 21.0769 35.1798 20.9721 35.161 20.8673C35.1545 20.8307 35.148 20.7942 35.1413 20.7565C35.053 20.261 34.9669 19.7651 34.8817 19.269C34.8539 19.1073 34.826 18.9456 34.7981 18.7839C34.7869 18.7189 34.7757 18.654 34.7645 18.589C34.7421 18.4591 34.7197 18.3291 34.6973 18.1992C34.689 18.1509 34.689 18.1509 34.6805 18.1016C34.6694 18.0371 34.6582 17.9726 34.6471 17.9081C34.6178 17.7387 34.5888 17.5693 34.5601 17.3998C34.5541 17.3646 34.5481 17.3293 34.5419 17.2931C34.5305 17.2258 34.5191 17.1586 34.5078 17.0913C34.421 16.5828 34.421 16.5828 34.247 16.4586C34.1126 16.4384 34.1126 16.4384 33.9782 16.4586C33.8424 16.5684 33.794 16.6531 33.7615 16.8231C33.7531 16.866 33.7447 16.9088 33.7361 16.9529C33.7271 17.0032 33.7182 17.0535 33.7094 17.1037C33.7043 17.1322 33.6992 17.1606 33.694 17.1899C33.6589 17.3868 33.6253 17.5839 33.5922 17.7811C33.5645 17.9452 33.5361 18.1092 33.5078 18.2731C33.4966 18.3381 33.4854 18.4031 33.4742 18.468C33.4658 18.5163 33.4658 18.5163 33.4574 18.5655C33.2725 19.6374 33.2725 19.6374 33.2557 19.7349C33.2445 19.7998 33.2333 19.8647 33.2221 19.9297C33.194 20.0927 33.166 20.2558 33.1381 20.4189C33.0634 20.8558 32.9847 21.2919 32.9029 21.7275C32.7078 21.744 32.5142 21.7582 32.3182 21.7578C32.2818 21.7579 32.2453 21.7579 32.2077 21.758C32.0413 21.751 32.0929 21.6372 32.0927 21.4927ZM33.6019 21.7275C33.614 21.629 33.6282 21.5315 33.6439 21.4335C33.6487 21.4026 33.6536 21.3717 33.6586 21.3398C33.7177 20.9686 33.7844 20.5986 33.8505 20.2285C33.8824 20.0484 33.9136 19.8681 33.9446 19.6878C33.9499 19.6569 33.9553 19.626 33.9608 19.5941C33.9658 19.5646 33.9709 19.5352 33.9761 19.5049C33.981 19.4768 33.9858 19.4487 33.9909 19.4198C34.0007 19.361 34.01 19.3022 34.0189 19.2433C34.0336 19.0868 34.0336 19.0868 34.1126 18.9586C34.1522 19.0706 34.1805 19.1798 34.2022 19.2965C34.2086 19.3307 34.215 19.365 34.2216 19.4003C34.2317 19.4553 34.2317 19.4553 34.242 19.5114C34.2491 19.5496 34.2562 19.5879 34.2635 19.6273C34.321 19.9396 34.3758 20.2524 34.4289 20.5655C34.452 20.7019 34.476 20.8381 34.5003 20.9742C34.5066 21.0095 34.5128 21.0447 34.5193 21.081C34.5312 21.1484 34.5433 21.2157 34.5556 21.283C34.5636 21.3286 34.5636 21.3286 34.5718 21.3752C34.5766 21.4018 34.5814 21.4284 34.5863 21.4558C34.5985 21.5558 34.5981 21.6537 34.5965 21.7544C34.4358 21.7552 34.275 21.7557 34.1143 21.7561C34.0454 21.7564 34.0454 21.7564 33.9751 21.7568C33.9315 21.7569 33.888 21.757 33.8431 21.7571C33.8027 21.7572 33.7623 21.7573 33.7206 21.7575C33.6332 21.7651 33.6332 21.7651 33.6019 21.7275Z" fill="white"/>
<line x1="20.191" y1="0.896484" x2="20.191" y2="33.9429" stroke="white"/>
</svg>
