<svg width="66" height="57" viewBox="0 0 66 57" fill="none" xmlns="http://www.w3.org/2000/svg">
<mask id="path-1-inside-1_294_309" fill="white">
<path d="M14.2859 16.9022C14.4406 17.0323 14.5734 17.1731 14.7042 17.3312C14.7466 17.3816 14.789 17.4321 14.8327 17.484C15.134 17.9498 15.2434 18.3948 15.2651 18.9606C15.2984 18.9376 15.3317 18.9147 15.3659 18.8911C15.9818 18.4896 16.5531 18.4235 17.2597 18.5532C17.9047 18.7445 18.3374 19.1258 18.7218 19.7105C18.9792 20.2471 19.035 20.7813 19.0478 21.3791C19.05 21.4473 19.0521 21.5154 19.0543 21.5857C19.0594 21.7516 19.0637 21.9175 19.0673 22.0834C19.1132 22.0597 19.1591 22.036 19.2063 22.0116C19.2672 21.9807 19.328 21.9498 19.3907 21.918C19.4507 21.8872 19.5107 21.8565 19.5725 21.8249C20.1676 21.5581 20.7765 21.6424 21.3728 21.8623C21.6429 21.9851 21.8477 22.1363 22.0592 22.355C22.0982 22.3948 22.1373 22.4346 22.1775 22.4757C22.8131 23.1898 22.781 24.0469 22.7771 24.9775C22.7774 25.1116 22.7779 25.2458 22.7784 25.3799C22.7795 25.7425 22.7791 26.1051 22.7783 26.4677C22.7777 26.8485 22.7783 27.2294 22.7787 27.6102C22.7791 28.25 22.7785 28.8898 22.7773 29.5296C22.776 30.267 22.7764 31.0043 22.7778 31.7417C22.7789 32.3767 22.7791 33.0118 22.7784 33.6468C22.778 34.0252 22.778 34.4036 22.7788 34.782C22.7795 35.1383 22.779 35.4945 22.7776 35.8507C22.7773 35.9807 22.7773 36.1106 22.7779 36.2405C22.7851 38.0873 22.2203 39.5587 21.1242 40.9565C21.1037 40.9789 21.0831 41.0013 21.0619 41.0244C21.0551 41.2154 21.0523 41.4049 21.0521 41.596C21.0517 41.6559 21.0514 41.7159 21.0511 41.7776C21.0504 41.9082 21.0499 42.0388 21.0495 42.1695C21.0487 42.376 21.0475 42.5825 21.0462 42.789C21.0423 43.3764 21.039 43.9638 21.0369 44.5512C21.0356 44.91 21.0334 45.2688 21.0306 45.6276C21.0297 45.7646 21.0292 45.9017 21.029 46.0387C21.0287 46.2302 21.0272 46.4216 21.0255 46.6131C21.0257 46.67 21.0259 46.727 21.0261 46.7856C21.0211 47.1621 21.0211 47.1621 20.9371 47.3186C20.7369 47.459 20.5226 47.4339 20.2921 47.4318C20.2383 47.4321 20.1846 47.4324 20.1292 47.4328C19.9485 47.4336 19.7678 47.4329 19.587 47.4323C19.4577 47.4326 19.3284 47.4329 19.1991 47.4334C18.8474 47.4343 18.4957 47.4339 18.144 47.4333C17.7765 47.4328 17.409 47.4332 17.0415 47.4336C16.4242 47.4339 15.8069 47.4334 15.1897 47.4325C14.4754 47.4314 13.761 47.4317 13.0467 47.4328C12.4342 47.4338 11.8216 47.4339 11.209 47.4334C10.8428 47.4331 10.4767 47.433 10.1105 47.4337C9.76628 47.4343 9.42208 47.4339 9.07787 47.4327C8.9513 47.4324 8.82474 47.4325 8.69817 47.4329C8.52586 47.4335 8.3536 47.4328 8.18129 47.4318C8.13079 47.4322 8.08029 47.4327 8.02826 47.4332C7.6908 47.4293 7.6908 47.4293 7.53864 47.311C7.38278 47.0497 7.40599 46.8139 7.41052 46.5117C7.41173 46.3926 7.41291 46.2735 7.41407 46.1544C7.41476 46.0909 7.41546 46.0275 7.41618 45.9621C7.41999 45.5533 7.42 45.1445 7.4207 44.7358C7.42153 44.3778 7.42367 44.0199 7.42875 43.6619C7.52221 41.5497 7.52221 41.5497 6.69398 39.7181C6.55446 39.5387 6.45347 39.3454 6.34501 39.1421C6.26944 39.0085 6.1938 38.8751 6.11808 38.7416C6.03287 38.5911 5.94765 38.4406 5.86243 38.29C5.81975 38.2147 5.77706 38.1393 5.73308 38.0617C5.52101 37.6874 5.30916 37.3129 5.09742 36.9383C5.03546 36.8288 5.03546 36.8288 4.97225 36.717C4.66327 36.17 4.35652 35.6216 4.05042 35.0727C3.8118 34.6452 3.57102 34.2193 3.32878 33.7942C3.00623 33.2283 2.68699 32.6602 2.36962 32.0908C2.19803 31.7829 2.02604 31.4753 1.85232 31.1689C1.82131 31.1141 1.79031 31.0592 1.75837 31.0028C1.7013 30.902 1.64408 30.8013 1.58665 30.7008C1.0988 29.8379 0.792978 28.963 0.960453 27.9322C1.16923 27.0084 1.59269 26.3154 2.31956 25.786C3.00778 25.3574 3.7943 25.2207 4.57247 25.3885C5.45769 25.6638 6.08153 26.1652 6.55391 27.0242C6.57661 27.0649 6.5993 27.1057 6.62268 27.1476C6.67807 27.2472 6.73314 27.3469 6.78814 27.4467C6.78869 27.3213 6.78869 27.3213 6.78925 27.1935C6.79282 26.4044 6.79736 25.6154 6.80283 24.8264C6.80562 24.4207 6.80806 24.0151 6.80973 23.6095C6.81136 23.2177 6.81388 22.826 6.81701 22.4342C6.81805 22.2851 6.81877 22.136 6.81916 21.9868C6.81976 21.7772 6.82151 21.5677 6.82352 21.3581C6.82339 21.2665 6.82339 21.2665 6.82325 21.1731C6.83363 20.4019 7.05752 19.7837 7.53854 19.2186C8.03654 18.7002 8.62354 18.4615 9.31035 18.4702C9.74107 18.5114 10.1532 18.661 10.528 18.8927C10.5379 18.841 10.5478 18.7892 10.5579 18.7359C10.7254 17.9287 11.016 17.2764 11.6762 16.8194C12.5271 16.3273 13.4713 16.2974 14.2859 16.9022ZM11.9061 17.9436C11.4859 18.5778 11.507 19.2831 11.5084 20.0356C11.5081 20.1364 11.5078 20.2371 11.5074 20.3379C11.5067 20.5537 11.5063 20.7695 11.5063 20.9853C11.5062 21.3265 11.505 21.6677 11.5037 22.0088C11.5007 22.8556 11.4987 23.7024 11.4974 24.5492C11.4964 25.2086 11.495 25.868 11.4922 26.5274C11.4909 26.8667 11.4904 27.206 11.4905 27.5453C11.4904 27.7559 11.4895 27.9665 11.4885 28.177C11.4881 28.2748 11.4881 28.3726 11.4884 28.4704C11.4888 28.6036 11.4879 28.7369 11.487 28.8701C11.4868 28.982 11.4868 28.982 11.4866 29.0962C11.463 29.2796 11.463 29.2796 11.3796 29.4057C11.2195 29.5256 11.0908 29.5047 10.902 29.4833C10.8403 29.4385 10.7786 29.3937 10.715 29.3475C10.6913 29.2032 10.6913 29.2032 10.691 29.0209C10.6904 28.9519 10.6898 28.8829 10.6891 28.8118C10.6894 28.7358 10.6897 28.6598 10.69 28.5815C10.6896 28.5017 10.6891 28.4219 10.6887 28.3396C10.6877 28.1202 10.6874 27.9008 10.6875 27.6814C10.6874 27.4516 10.6862 27.2217 10.685 26.9919C10.6824 26.4563 10.6813 25.9208 10.6802 25.3852C10.6788 24.7052 10.6767 24.0253 10.6735 23.3453C10.6725 23.1167 10.6718 22.8881 10.6717 22.6594C10.6715 22.4038 10.6706 22.1482 10.6696 21.8926C10.6697 21.8176 10.6699 21.7426 10.67 21.6652C10.6658 20.9707 10.6071 20.4267 10.154 19.911C9.75331 19.5471 9.34941 19.5227 8.84506 19.5716C8.45394 19.6888 8.19793 19.96 7.97243 20.3183C7.74876 20.794 7.77319 21.3297 7.76649 21.8512C7.76528 21.93 7.76407 22.0087 7.76282 22.0899C7.7523 22.817 7.74617 23.5442 7.74156 24.2714C7.73809 24.8073 7.7322 25.343 7.72313 25.8787C7.71694 26.2573 7.71371 26.6359 7.71252 27.0145C7.71174 27.2397 7.70932 27.4645 7.70445 27.6897C7.68082 28.8341 7.78053 29.601 8.44362 30.5108C8.57478 30.6958 8.68206 30.8914 8.79173 31.0922C8.82957 31.1594 8.86741 31.2266 8.9064 31.2958C8.96281 31.3963 8.96281 31.3963 9.02036 31.4988C9.27707 31.9558 9.535 32.4117 9.79998 32.8632C9.84307 32.9369 9.88615 33.0107 9.93054 33.0867C10.0126 33.2269 10.0953 33.3669 10.1784 33.5064C10.2337 33.6011 10.2337 33.6011 10.2901 33.6977C10.3226 33.7526 10.3551 33.8075 10.3886 33.8641C10.4777 34.0581 10.5089 34.2239 10.528 34.4392C10.4678 34.6258 10.442 34.6897 10.2787 34.7786C9.95005 34.8175 9.95005 34.8175 9.78903 34.6794C9.60162 34.4378 9.46231 34.1732 9.31643 33.9003C9.2494 33.7768 9.18227 33.6533 9.11508 33.5298C9.08066 33.4665 9.04624 33.4032 9.01078 33.338C8.84958 33.0438 8.68392 32.7528 8.51782 32.4619C8.44972 32.3425 8.38163 32.2231 8.31354 32.1037C8.27852 32.0422 8.2435 31.9808 8.20741 31.9175C8.00756 31.5663 7.80888 31.2143 7.61013 30.8623C7.54784 30.7521 7.54784 30.7521 7.48429 30.6396C7.28959 30.2949 7.09502 29.9501 6.90077 29.6051C6.63549 29.134 6.36954 28.6634 6.1025 28.1934C6.07185 28.1394 6.0412 28.0854 6.00961 28.0298C5.93331 27.8959 5.85642 27.7624 5.77916 27.6291C5.73971 27.5608 5.70026 27.4924 5.65961 27.422C5.35733 26.9638 4.9231 26.5563 4.41567 26.4029C3.77853 26.2927 3.26696 26.3915 2.72105 26.7763C2.263 27.1491 1.98078 27.6519 1.86401 28.2613C1.76933 29.0734 2.1176 29.717 2.50679 30.3786C2.55166 30.4562 2.59644 30.5338 2.64115 30.6115C2.73239 30.7699 2.82393 30.9282 2.91566 31.0863C3.11314 31.4277 3.30456 31.773 3.49629 32.1182C3.80099 32.6647 4.10839 33.2093 4.41783 33.7526C4.68554 34.2227 4.95209 34.6936 5.21818 35.1647C5.26003 35.2389 5.30189 35.313 5.34501 35.3893C5.43029 35.5403 5.51557 35.6914 5.60084 35.8424C5.85064 36.2848 6.10059 36.7271 6.35055 37.1694C6.54287 37.5097 6.73513 37.8501 6.92715 38.1906C6.99446 38.31 7.06179 38.4294 7.12913 38.5487C7.2131 38.6975 7.29702 38.8464 7.38089 38.9953C7.41934 39.0634 7.45778 39.1315 7.4974 39.2017C7.53055 39.2605 7.56369 39.3193 7.59785 39.3799C7.63918 39.4521 7.68052 39.5243 7.7231 39.5987C7.74556 39.6609 7.76802 39.723 7.79116 39.7871C7.8924 40.0245 7.97815 40.172 8.15942 40.3455C8.54721 40.4862 8.98455 40.4334 9.3868 40.4208C9.5128 40.4196 9.6388 40.4188 9.7648 40.4183C10.1055 40.4159 10.4461 40.409 10.7867 40.401C11.1424 40.3933 11.4982 40.3892 11.8539 40.3848C12.2949 40.3791 12.7359 40.3729 13.1769 40.3648C14.1227 40.3478 15.0674 40.346 16.0133 40.3564C16.4172 40.3604 16.8212 40.3619 17.2252 40.3634C17.5461 40.3647 17.8668 40.3674 18.1877 40.3734C18.4885 40.379 18.7891 40.3803 19.09 40.3785C19.1996 40.3786 19.3092 40.3802 19.4188 40.3835C19.9794 40.4157 19.9795 40.4157 20.4815 40.1905C20.6964 39.9529 20.8487 39.6836 20.9996 39.3951C21.0532 39.3057 21.107 39.2165 21.1607 39.1272C21.7563 37.9744 21.8912 36.9325 21.8893 35.6299C21.8896 35.5051 21.8899 35.3803 21.8903 35.2556C21.8911 34.9189 21.8912 34.5823 21.891 34.2457C21.8909 33.9639 21.8912 33.6822 21.8915 33.4005C21.8922 32.7356 21.8922 32.0708 21.8919 31.406C21.8915 30.7215 21.8923 30.0369 21.8936 29.3523C21.8947 28.763 21.8951 28.1738 21.8949 27.5845C21.8947 27.2332 21.8949 26.8819 21.8958 26.5307C21.8966 26.2004 21.8964 25.8702 21.8956 25.54C21.8955 25.4192 21.8956 25.2984 21.8962 25.1776C21.9079 24.0303 21.9079 24.0303 21.4359 23.0339C21.0171 22.6941 20.6506 22.5572 20.1269 22.6266C19.7281 22.7627 19.4507 22.9799 19.2017 23.3426C18.9667 23.8857 18.9867 24.4736 18.986 25.0606C18.9857 25.2173 18.9847 25.3739 18.9834 25.5306C18.98 25.9755 18.9781 26.4204 18.9765 26.8653C18.9755 27.1385 18.9737 27.4116 18.9713 27.6848C18.9705 27.7887 18.9702 27.8926 18.9702 27.9965C18.9701 28.1412 18.969 28.2857 18.9676 28.4304C18.9673 28.5126 18.967 28.5949 18.9667 28.6797C18.9587 28.7433 18.9508 28.8068 18.9426 28.8723C18.7264 29.0293 18.6359 29.0369 18.3817 29.0081C18.2474 28.9001 18.2004 28.8396 18.171 28.6591C18.1709 28.6026 18.1708 28.546 18.1707 28.4877C18.1701 28.4226 18.1695 28.3575 18.1688 28.2904C18.1691 28.2191 18.1694 28.1478 18.1697 28.0743C18.1693 27.9991 18.1688 27.9239 18.1684 27.8465C18.1671 27.597 18.1672 27.3476 18.1672 27.0982C18.1664 26.9249 18.1656 26.7516 18.1647 26.5783C18.1622 26.0744 18.161 25.5705 18.1599 25.0666C18.1584 24.3831 18.156 23.6996 18.1526 23.0161C18.1516 22.7613 18.1514 22.5064 18.1512 22.2516C18.1506 22.0944 18.1499 21.9372 18.1493 21.78C18.1494 21.7095 18.1496 21.6391 18.1497 21.5664C18.1455 20.9137 18.0971 20.3532 17.6583 19.8683C17.3345 19.5453 17.0331 19.3983 16.5828 19.4151C16.1237 19.4863 15.8293 19.7333 15.54 20.1147C15.2117 20.6218 15.2556 21.1988 15.2543 21.7969C15.2537 21.9158 15.2537 21.9158 15.253 22.0372C15.2522 22.2088 15.2514 22.3804 15.2508 22.552C15.2498 22.8233 15.2483 23.0946 15.2468 23.3659C15.2423 24.1369 15.2386 24.908 15.2354 25.6791C15.2336 26.1056 15.2314 26.5322 15.2288 26.9587C15.2274 27.1842 15.2263 27.4098 15.2256 27.6353C15.2249 27.8863 15.2234 28.1372 15.2217 28.3882C15.2216 28.4631 15.2216 28.538 15.2216 28.6153C15.2207 28.7173 15.2207 28.7173 15.2197 28.8215C15.2195 28.8808 15.2192 28.9401 15.2189 29.0013C15.2028 29.1439 15.2028 29.1439 15.0781 29.2796C14.9613 29.2977 14.9613 29.2977 14.8288 29.2966C14.7851 29.297 14.7414 29.2973 14.6964 29.2977C14.5795 29.2796 14.5795 29.2796 14.4548 29.1439C14.4389 28.9698 14.4389 28.9698 14.4383 28.7451C14.4378 28.6601 14.4373 28.5751 14.4367 28.4875C14.4368 28.3928 14.4369 28.2981 14.4369 28.2034C14.4366 28.104 14.4361 28.0046 14.4356 27.9053C14.4347 27.691 14.4342 27.4766 14.4339 27.2623C14.4335 26.923 14.4321 26.5838 14.4306 26.2445C14.4276 25.5237 14.4256 24.8028 14.4237 24.0819C14.4216 23.3053 14.4194 22.5288 14.4159 21.7522C14.4145 21.4153 14.4136 21.0785 14.4132 20.7416C14.4128 20.5313 14.412 20.321 14.411 20.1107C14.4106 20.0136 14.4104 19.9166 14.4105 19.8195C14.4241 18.7621 14.4241 18.7621 13.9562 17.8743C13.3117 17.3452 12.4991 17.2536 11.9061 17.9436ZM8.40874 41.3638C8.40874 41.7223 8.40874 42.0807 8.40874 42.4501C8.48728 42.4503 8.56583 42.4505 8.64675 42.4508C9.38776 42.4533 10.1287 42.4572 10.8697 42.4625C11.2507 42.4652 11.6316 42.4674 12.0125 42.4684C12.3803 42.4695 12.7481 42.4718 13.1159 42.4751C13.256 42.4761 13.3962 42.4766 13.5363 42.4767C13.733 42.4768 13.9296 42.4787 14.1263 42.4809C14.2127 42.4804 14.2127 42.4804 14.301 42.4798C14.7452 42.4876 15.0864 42.6001 15.4093 42.9422C15.6862 43.4338 15.761 43.8466 15.6391 44.4188C15.5685 44.5748 15.49 44.6889 15.3898 44.8262C15.3898 44.871 15.3898 44.9158 15.3898 44.9619C14.9129 45.2302 14.4845 45.3317 13.9494 45.3307C13.8891 45.3314 13.8288 45.3321 13.7667 45.3328C13.5694 45.3349 13.3722 45.3355 13.1749 45.3361C13.0373 45.3373 12.8998 45.3385 12.7622 45.3398C12.4016 45.343 12.041 45.3451 11.6804 45.3468C11.3119 45.3489 10.9434 45.352 10.5749 45.3551C9.85282 45.3609 9.13079 45.3655 8.40874 45.3693C8.40874 45.7277 8.40874 46.0862 8.40874 46.4555C12.2757 46.4331 16.1427 46.4107 20.1269 46.3876C20.1269 44.7298 20.1269 43.0719 20.1269 41.3638C16.2599 41.3638 12.3929 41.3638 8.40874 41.3638ZM8.40874 43.4684C8.40874 43.7596 8.40874 44.0509 8.40874 44.3509C9.20087 44.3572 9.99299 44.362 10.7851 44.365C11.153 44.3664 11.5207 44.3683 11.8886 44.3714C12.2434 44.3744 12.5982 44.376 12.9531 44.3767C13.0886 44.3772 13.2241 44.3782 13.3595 44.3796C13.5491 44.3816 13.7386 44.3819 13.9281 44.3818C14.0125 44.3832 14.0125 44.3832 14.0985 44.3847C14.4086 44.383 14.4086 44.383 14.6789 44.2286C14.7872 44.0743 14.7872 44.0743 14.7626 43.8333C14.7244 43.5868 14.7244 43.5868 14.5172 43.4684C14.3962 43.4484 14.3962 43.4484 14.2628 43.4521C14.2111 43.4519 14.1595 43.4517 14.1062 43.4515C14.0498 43.452 13.9934 43.4525 13.9352 43.453C13.8458 43.4529 13.8458 43.4529 13.7546 43.4529C13.5573 43.453 13.36 43.4541 13.1627 43.4551C13.026 43.4554 12.8893 43.4556 12.7526 43.4557C12.3926 43.4562 12.0327 43.4576 11.6727 43.4591C11.3054 43.4604 10.9382 43.4611 10.571 43.4618C9.85022 43.4632 9.12948 43.4655 8.40874 43.4684Z"/>
</mask>
<path d="M14.2859 16.9022C14.4406 17.0323 14.5734 17.1731 14.7042 17.3312C14.7466 17.3816 14.789 17.4321 14.8327 17.484C15.134 17.9498 15.2434 18.3948 15.2651 18.9606C15.2984 18.9376 15.3317 18.9147 15.3659 18.8911C15.9818 18.4896 16.5531 18.4235 17.2597 18.5532C17.9047 18.7445 18.3374 19.1258 18.7218 19.7105C18.9792 20.2471 19.035 20.7813 19.0478 21.3791C19.05 21.4473 19.0521 21.5154 19.0543 21.5857C19.0594 21.7516 19.0637 21.9175 19.0673 22.0834C19.1132 22.0597 19.1591 22.036 19.2063 22.0116C19.2672 21.9807 19.328 21.9498 19.3907 21.918C19.4507 21.8872 19.5107 21.8565 19.5725 21.8249C20.1676 21.5581 20.7765 21.6424 21.3728 21.8623C21.6429 21.9851 21.8477 22.1363 22.0592 22.355C22.0982 22.3948 22.1373 22.4346 22.1775 22.4757C22.8131 23.1898 22.781 24.0469 22.7771 24.9775C22.7774 25.1116 22.7779 25.2458 22.7784 25.3799C22.7795 25.7425 22.7791 26.1051 22.7783 26.4677C22.7777 26.8485 22.7783 27.2294 22.7787 27.6102C22.7791 28.25 22.7785 28.8898 22.7773 29.5296C22.776 30.267 22.7764 31.0043 22.7778 31.7417C22.7789 32.3767 22.7791 33.0118 22.7784 33.6468C22.778 34.0252 22.778 34.4036 22.7788 34.782C22.7795 35.1383 22.779 35.4945 22.7776 35.8507C22.7773 35.9807 22.7773 36.1106 22.7779 36.2405C22.7851 38.0873 22.2203 39.5587 21.1242 40.9565C21.1037 40.9789 21.0831 41.0013 21.0619 41.0244C21.0551 41.2154 21.0523 41.4049 21.0521 41.596C21.0517 41.6559 21.0514 41.7159 21.0511 41.7776C21.0504 41.9082 21.0499 42.0388 21.0495 42.1695C21.0487 42.376 21.0475 42.5825 21.0462 42.789C21.0423 43.3764 21.039 43.9638 21.0369 44.5512C21.0356 44.91 21.0334 45.2688 21.0306 45.6276C21.0297 45.7646 21.0292 45.9017 21.029 46.0387C21.0287 46.2302 21.0272 46.4216 21.0255 46.6131C21.0257 46.67 21.0259 46.727 21.0261 46.7856C21.0211 47.1621 21.0211 47.1621 20.9371 47.3186C20.7369 47.459 20.5226 47.4339 20.2921 47.4318C20.2383 47.4321 20.1846 47.4324 20.1292 47.4328C19.9485 47.4336 19.7678 47.4329 19.587 47.4323C19.4577 47.4326 19.3284 47.4329 19.1991 47.4334C18.8474 47.4343 18.4957 47.4339 18.144 47.4333C17.7765 47.4328 17.409 47.4332 17.0415 47.4336C16.4242 47.4339 15.8069 47.4334 15.1897 47.4325C14.4754 47.4314 13.761 47.4317 13.0467 47.4328C12.4342 47.4338 11.8216 47.4339 11.209 47.4334C10.8428 47.4331 10.4767 47.433 10.1105 47.4337C9.76628 47.4343 9.42208 47.4339 9.07787 47.4327C8.9513 47.4324 8.82474 47.4325 8.69817 47.4329C8.52586 47.4335 8.3536 47.4328 8.18129 47.4318C8.13079 47.4322 8.08029 47.4327 8.02826 47.4332C7.6908 47.4293 7.6908 47.4293 7.53864 47.311C7.38278 47.0497 7.40599 46.8139 7.41052 46.5117C7.41173 46.3926 7.41291 46.2735 7.41407 46.1544C7.41476 46.0909 7.41546 46.0275 7.41618 45.9621C7.41999 45.5533 7.42 45.1445 7.4207 44.7358C7.42153 44.3778 7.42367 44.0199 7.42875 43.6619C7.52221 41.5497 7.52221 41.5497 6.69398 39.7181C6.55446 39.5387 6.45347 39.3454 6.34501 39.1421C6.26944 39.0085 6.1938 38.8751 6.11808 38.7416C6.03287 38.5911 5.94765 38.4406 5.86243 38.29C5.81975 38.2147 5.77706 38.1393 5.73308 38.0617C5.52101 37.6874 5.30916 37.3129 5.09742 36.9383C5.03546 36.8288 5.03546 36.8288 4.97225 36.717C4.66327 36.17 4.35652 35.6216 4.05042 35.0727C3.8118 34.6452 3.57102 34.2193 3.32878 33.7942C3.00623 33.2283 2.68699 32.6602 2.36962 32.0908C2.19803 31.7829 2.02604 31.4753 1.85232 31.1689C1.82131 31.1141 1.79031 31.0592 1.75837 31.0028C1.7013 30.902 1.64408 30.8013 1.58665 30.7008C1.0988 29.8379 0.792978 28.963 0.960453 27.9322C1.16923 27.0084 1.59269 26.3154 2.31956 25.786C3.00778 25.3574 3.7943 25.2207 4.57247 25.3885C5.45769 25.6638 6.08153 26.1652 6.55391 27.0242C6.57661 27.0649 6.5993 27.1057 6.62268 27.1476C6.67807 27.2472 6.73314 27.3469 6.78814 27.4467C6.78869 27.3213 6.78869 27.3213 6.78925 27.1935C6.79282 26.4044 6.79736 25.6154 6.80283 24.8264C6.80562 24.4207 6.80806 24.0151 6.80973 23.6095C6.81136 23.2177 6.81388 22.826 6.81701 22.4342C6.81805 22.2851 6.81877 22.136 6.81916 21.9868C6.81976 21.7772 6.82151 21.5677 6.82352 21.3581C6.82339 21.2665 6.82339 21.2665 6.82325 21.1731C6.83363 20.4019 7.05752 19.7837 7.53854 19.2186C8.03654 18.7002 8.62354 18.4615 9.31035 18.4702C9.74107 18.5114 10.1532 18.661 10.528 18.8927C10.5379 18.841 10.5478 18.7892 10.5579 18.7359C10.7254 17.9287 11.016 17.2764 11.6762 16.8194C12.5271 16.3273 13.4713 16.2974 14.2859 16.9022ZM11.9061 17.9436C11.4859 18.5778 11.507 19.2831 11.5084 20.0356C11.5081 20.1364 11.5078 20.2371 11.5074 20.3379C11.5067 20.5537 11.5063 20.7695 11.5063 20.9853C11.5062 21.3265 11.505 21.6677 11.5037 22.0088C11.5007 22.8556 11.4987 23.7024 11.4974 24.5492C11.4964 25.2086 11.495 25.868 11.4922 26.5274C11.4909 26.8667 11.4904 27.206 11.4905 27.5453C11.4904 27.7559 11.4895 27.9665 11.4885 28.177C11.4881 28.2748 11.4881 28.3726 11.4884 28.4704C11.4888 28.6036 11.4879 28.7369 11.487 28.8701C11.4868 28.982 11.4868 28.982 11.4866 29.0962C11.463 29.2796 11.463 29.2796 11.3796 29.4057C11.2195 29.5256 11.0908 29.5047 10.902 29.4833C10.8403 29.4385 10.7786 29.3937 10.715 29.3475C10.6913 29.2032 10.6913 29.2032 10.691 29.0209C10.6904 28.9519 10.6898 28.8829 10.6891 28.8118C10.6894 28.7358 10.6897 28.6598 10.69 28.5815C10.6896 28.5017 10.6891 28.4219 10.6887 28.3396C10.6877 28.1202 10.6874 27.9008 10.6875 27.6814C10.6874 27.4516 10.6862 27.2217 10.685 26.9919C10.6824 26.4563 10.6813 25.9208 10.6802 25.3852C10.6788 24.7052 10.6767 24.0253 10.6735 23.3453C10.6725 23.1167 10.6718 22.8881 10.6717 22.6594C10.6715 22.4038 10.6706 22.1482 10.6696 21.8926C10.6697 21.8176 10.6699 21.7426 10.67 21.6652C10.6658 20.9707 10.6071 20.4267 10.154 19.911C9.75331 19.5471 9.34941 19.5227 8.84506 19.5716C8.45394 19.6888 8.19793 19.96 7.97243 20.3183C7.74876 20.794 7.77319 21.3297 7.76649 21.8512C7.76528 21.93 7.76407 22.0087 7.76282 22.0899C7.7523 22.817 7.74617 23.5442 7.74156 24.2714C7.73809 24.8073 7.7322 25.343 7.72313 25.8787C7.71694 26.2573 7.71371 26.6359 7.71252 27.0145C7.71174 27.2397 7.70932 27.4645 7.70445 27.6897C7.68082 28.8341 7.78053 29.601 8.44362 30.5108C8.57478 30.6958 8.68206 30.8914 8.79173 31.0922C8.82957 31.1594 8.86741 31.2266 8.9064 31.2958C8.96281 31.3963 8.96281 31.3963 9.02036 31.4988C9.27707 31.9558 9.535 32.4117 9.79998 32.8632C9.84307 32.9369 9.88615 33.0107 9.93054 33.0867C10.0126 33.2269 10.0953 33.3669 10.1784 33.5064C10.2337 33.6011 10.2337 33.6011 10.2901 33.6977C10.3226 33.7526 10.3551 33.8075 10.3886 33.8641C10.4777 34.0581 10.5089 34.2239 10.528 34.4392C10.4678 34.6258 10.442 34.6897 10.2787 34.7786C9.95005 34.8175 9.95005 34.8175 9.78903 34.6794C9.60162 34.4378 9.46231 34.1732 9.31643 33.9003C9.2494 33.7768 9.18227 33.6533 9.11508 33.5298C9.08066 33.4665 9.04624 33.4032 9.01078 33.338C8.84958 33.0438 8.68392 32.7528 8.51782 32.4619C8.44972 32.3425 8.38163 32.2231 8.31354 32.1037C8.27852 32.0422 8.2435 31.9808 8.20741 31.9175C8.00756 31.5663 7.80888 31.2143 7.61013 30.8623C7.54784 30.7521 7.54784 30.7521 7.48429 30.6396C7.28959 30.2949 7.09502 29.9501 6.90077 29.6051C6.63549 29.134 6.36954 28.6634 6.1025 28.1934C6.07185 28.1394 6.0412 28.0854 6.00961 28.0298C5.93331 27.8959 5.85642 27.7624 5.77916 27.6291C5.73971 27.5608 5.70026 27.4924 5.65961 27.422C5.35733 26.9638 4.9231 26.5563 4.41567 26.4029C3.77853 26.2927 3.26696 26.3915 2.72105 26.7763C2.263 27.1491 1.98078 27.6519 1.86401 28.2613C1.76933 29.0734 2.1176 29.717 2.50679 30.3786C2.55166 30.4562 2.59644 30.5338 2.64115 30.6115C2.73239 30.7699 2.82393 30.9282 2.91566 31.0863C3.11314 31.4277 3.30456 31.773 3.49629 32.1182C3.80099 32.6647 4.10839 33.2093 4.41783 33.7526C4.68554 34.2227 4.95209 34.6936 5.21818 35.1647C5.26003 35.2389 5.30189 35.313 5.34501 35.3893C5.43029 35.5403 5.51557 35.6914 5.60084 35.8424C5.85064 36.2848 6.10059 36.7271 6.35055 37.1694C6.54287 37.5097 6.73513 37.8501 6.92715 38.1906C6.99446 38.31 7.06179 38.4294 7.12913 38.5487C7.2131 38.6975 7.29702 38.8464 7.38089 38.9953C7.41934 39.0634 7.45778 39.1315 7.4974 39.2017C7.53055 39.2605 7.56369 39.3193 7.59785 39.3799C7.63918 39.4521 7.68052 39.5243 7.7231 39.5987C7.74556 39.6609 7.76802 39.723 7.79116 39.7871C7.8924 40.0245 7.97815 40.172 8.15942 40.3455C8.54721 40.4862 8.98455 40.4334 9.3868 40.4208C9.5128 40.4196 9.6388 40.4188 9.7648 40.4183C10.1055 40.4159 10.4461 40.409 10.7867 40.401C11.1424 40.3933 11.4982 40.3892 11.8539 40.3848C12.2949 40.3791 12.7359 40.3729 13.1769 40.3648C14.1227 40.3478 15.0674 40.346 16.0133 40.3564C16.4172 40.3604 16.8212 40.3619 17.2252 40.3634C17.5461 40.3647 17.8668 40.3674 18.1877 40.3734C18.4885 40.379 18.7891 40.3803 19.09 40.3785C19.1996 40.3786 19.3092 40.3802 19.4188 40.3835C19.9794 40.4157 19.9795 40.4157 20.4815 40.1905C20.6964 39.9529 20.8487 39.6836 20.9996 39.3951C21.0532 39.3057 21.107 39.2165 21.1607 39.1272C21.7563 37.9744 21.8912 36.9325 21.8893 35.6299C21.8896 35.5051 21.8899 35.3803 21.8903 35.2556C21.8911 34.9189 21.8912 34.5823 21.891 34.2457C21.8909 33.9639 21.8912 33.6822 21.8915 33.4005C21.8922 32.7356 21.8922 32.0708 21.8919 31.406C21.8915 30.7215 21.8923 30.0369 21.8936 29.3523C21.8947 28.763 21.8951 28.1738 21.8949 27.5845C21.8947 27.2332 21.8949 26.8819 21.8958 26.5307C21.8966 26.2004 21.8964 25.8702 21.8956 25.54C21.8955 25.4192 21.8956 25.2984 21.8962 25.1776C21.9079 24.0303 21.9079 24.0303 21.4359 23.0339C21.0171 22.6941 20.6506 22.5572 20.1269 22.6266C19.7281 22.7627 19.4507 22.9799 19.2017 23.3426C18.9667 23.8857 18.9867 24.4736 18.986 25.0606C18.9857 25.2173 18.9847 25.3739 18.9834 25.5306C18.98 25.9755 18.9781 26.4204 18.9765 26.8653C18.9755 27.1385 18.9737 27.4116 18.9713 27.6848C18.9705 27.7887 18.9702 27.8926 18.9702 27.9965C18.9701 28.1412 18.969 28.2857 18.9676 28.4304C18.9673 28.5126 18.967 28.5949 18.9667 28.6797C18.9587 28.7433 18.9508 28.8068 18.9426 28.8723C18.7264 29.0293 18.6359 29.0369 18.3817 29.0081C18.2474 28.9001 18.2004 28.8396 18.171 28.6591C18.1709 28.6026 18.1708 28.546 18.1707 28.4877C18.1701 28.4226 18.1695 28.3575 18.1688 28.2904C18.1691 28.2191 18.1694 28.1478 18.1697 28.0743C18.1693 27.9991 18.1688 27.9239 18.1684 27.8465C18.1671 27.597 18.1672 27.3476 18.1672 27.0982C18.1664 26.9249 18.1656 26.7516 18.1647 26.5783C18.1622 26.0744 18.161 25.5705 18.1599 25.0666C18.1584 24.3831 18.156 23.6996 18.1526 23.0161C18.1516 22.7613 18.1514 22.5064 18.1512 22.2516C18.1506 22.0944 18.1499 21.9372 18.1493 21.78C18.1494 21.7095 18.1496 21.6391 18.1497 21.5664C18.1455 20.9137 18.0971 20.3532 17.6583 19.8683C17.3345 19.5453 17.0331 19.3983 16.5828 19.4151C16.1237 19.4863 15.8293 19.7333 15.54 20.1147C15.2117 20.6218 15.2556 21.1988 15.2543 21.7969C15.2537 21.9158 15.2537 21.9158 15.253 22.0372C15.2522 22.2088 15.2514 22.3804 15.2508 22.552C15.2498 22.8233 15.2483 23.0946 15.2468 23.3659C15.2423 24.1369 15.2386 24.908 15.2354 25.6791C15.2336 26.1056 15.2314 26.5322 15.2288 26.9587C15.2274 27.1842 15.2263 27.4098 15.2256 27.6353C15.2249 27.8863 15.2234 28.1372 15.2217 28.3882C15.2216 28.4631 15.2216 28.538 15.2216 28.6153C15.2207 28.7173 15.2207 28.7173 15.2197 28.8215C15.2195 28.8808 15.2192 28.9401 15.2189 29.0013C15.2028 29.1439 15.2028 29.1439 15.0781 29.2796C14.9613 29.2977 14.9613 29.2977 14.8288 29.2966C14.7851 29.297 14.7414 29.2973 14.6964 29.2977C14.5795 29.2796 14.5795 29.2796 14.4548 29.1439C14.4389 28.9698 14.4389 28.9698 14.4383 28.7451C14.4378 28.6601 14.4373 28.5751 14.4367 28.4875C14.4368 28.3928 14.4369 28.2981 14.4369 28.2034C14.4366 28.104 14.4361 28.0046 14.4356 27.9053C14.4347 27.691 14.4342 27.4766 14.4339 27.2623C14.4335 26.923 14.4321 26.5838 14.4306 26.2445C14.4276 25.5237 14.4256 24.8028 14.4237 24.0819C14.4216 23.3053 14.4194 22.5288 14.4159 21.7522C14.4145 21.4153 14.4136 21.0785 14.4132 20.7416C14.4128 20.5313 14.412 20.321 14.411 20.1107C14.4106 20.0136 14.4104 19.9166 14.4105 19.8195C14.4241 18.7621 14.4241 18.7621 13.9562 17.8743C13.3117 17.3452 12.4991 17.2536 11.9061 17.9436ZM8.40874 41.3638C8.40874 41.7223 8.40874 42.0807 8.40874 42.4501C8.48728 42.4503 8.56583 42.4505 8.64675 42.4508C9.38776 42.4533 10.1287 42.4572 10.8697 42.4625C11.2507 42.4652 11.6316 42.4674 12.0125 42.4684C12.3803 42.4695 12.7481 42.4718 13.1159 42.4751C13.256 42.4761 13.3962 42.4766 13.5363 42.4767C13.733 42.4768 13.9296 42.4787 14.1263 42.4809C14.2127 42.4804 14.2127 42.4804 14.301 42.4798C14.7452 42.4876 15.0864 42.6001 15.4093 42.9422C15.6862 43.4338 15.761 43.8466 15.6391 44.4188C15.5685 44.5748 15.49 44.6889 15.3898 44.8262C15.3898 44.871 15.3898 44.9158 15.3898 44.9619C14.9129 45.2302 14.4845 45.3317 13.9494 45.3307C13.8891 45.3314 13.8288 45.3321 13.7667 45.3328C13.5694 45.3349 13.3722 45.3355 13.1749 45.3361C13.0373 45.3373 12.8998 45.3385 12.7622 45.3398C12.4016 45.343 12.041 45.3451 11.6804 45.3468C11.3119 45.3489 10.9434 45.352 10.5749 45.3551C9.85282 45.3609 9.13079 45.3655 8.40874 45.3693C8.40874 45.7277 8.40874 46.0862 8.40874 46.4555C12.2757 46.4331 16.1427 46.4107 20.1269 46.3876C20.1269 44.7298 20.1269 43.0719 20.1269 41.3638C16.2599 41.3638 12.3929 41.3638 8.40874 41.3638ZM8.40874 43.4684C8.40874 43.7596 8.40874 44.0509 8.40874 44.3509C9.20087 44.3572 9.99299 44.362 10.7851 44.365C11.153 44.3664 11.5207 44.3683 11.8886 44.3714C12.2434 44.3744 12.5982 44.376 12.9531 44.3767C13.0886 44.3772 13.2241 44.3782 13.3595 44.3796C13.5491 44.3816 13.7386 44.3819 13.9281 44.3818C14.0125 44.3832 14.0125 44.3832 14.0985 44.3847C14.4086 44.383 14.4086 44.383 14.6789 44.2286C14.7872 44.0743 14.7872 44.0743 14.7626 43.8333C14.7244 43.5868 14.7244 43.5868 14.5172 43.4684C14.3962 43.4484 14.3962 43.4484 14.2628 43.4521C14.2111 43.4519 14.1595 43.4517 14.1062 43.4515C14.0498 43.452 13.9934 43.4525 13.9352 43.453C13.8458 43.4529 13.8458 43.4529 13.7546 43.4529C13.5573 43.453 13.36 43.4541 13.1627 43.4551C13.026 43.4554 12.8893 43.4556 12.7526 43.4557C12.3926 43.4562 12.0327 43.4576 11.6727 43.4591C11.3054 43.4604 10.9382 43.4611 10.571 43.4618C9.85022 43.4632 9.12948 43.4655 8.40874 43.4684Z" fill="white" stroke="white" stroke-width="20" mask="url(#path-1-inside-1_294_309)"/>
<mask id="path-2-inside-2_294_309" fill="white">
<path d="M44.7245 48.2453C44.9346 48.2686 45.1434 48.271 45.3547 48.2721C45.4156 48.2727 45.4766 48.2733 45.5393 48.2739C45.6679 48.2748 45.7965 48.2753 45.9252 48.2755C46.1216 48.2761 46.318 48.2793 46.5144 48.2827C46.6395 48.2832 46.7647 48.2837 46.8898 48.2839C46.9776 48.2858 46.9776 48.2858 47.0673 48.2878C47.321 48.2857 47.5286 48.2797 47.7327 48.1176C47.8687 47.9421 47.8851 47.8058 47.8926 47.5864C47.8949 47.5222 47.8971 47.458 47.8994 47.3919C47.9066 47.0326 47.9088 46.6734 47.9084 46.314C47.9085 46.229 47.9085 46.1441 47.9086 46.0591C47.9088 45.8307 47.9087 45.6022 47.9086 45.3737C47.9085 45.1335 47.9086 44.8932 47.9087 44.653C47.9087 44.2498 47.9086 43.8467 47.9085 43.4436C47.9083 42.9788 47.9083 42.5139 47.9085 42.0491C47.9087 41.6484 47.9087 41.2478 47.9086 40.8471C47.9086 40.6085 47.9086 40.3698 47.9087 40.1312C47.9088 39.9069 47.9087 39.6826 47.9085 39.4584C47.9084 39.3765 47.9085 39.2946 47.9085 39.2126C47.9089 38.8178 47.9063 38.4252 47.8722 38.0315C47.8622 37.8501 47.8813 37.6772 47.9035 37.4971C48.0841 37.4258 48.2328 37.4134 48.4263 37.4167C48.5107 37.4176 48.5107 37.4176 48.5969 37.4185C48.6553 37.4195 48.7138 37.4205 48.774 37.4215C48.8899 37.4234 49.0058 37.425 49.1217 37.4262C49.173 37.4271 49.2242 37.4279 49.2771 37.4288C49.4753 37.4184 49.6048 37.3719 49.7698 37.263C50.048 36.8683 49.915 36.1574 49.9149 35.6851C49.915 35.5979 49.9152 35.5108 49.9153 35.4236C49.9157 35.1853 49.9159 34.9469 49.916 34.7086C49.9161 34.4511 49.9165 34.1936 49.9168 33.9361C49.9175 33.3152 49.9179 32.6942 49.9183 32.0733C49.9184 31.7806 49.9186 31.4879 49.9188 31.1952C49.9195 30.2219 49.92 29.2487 49.9203 28.2755C49.9204 28.0233 49.9204 27.7711 49.9205 27.5189C49.9205 27.4562 49.9206 27.3936 49.9206 27.329C49.9209 26.3128 49.9218 25.2966 49.9231 24.2805C49.9243 23.2365 49.925 22.1924 49.9251 21.1484C49.9252 20.5625 49.9255 19.9766 49.9265 19.3907C49.9273 18.892 49.9276 18.3933 49.9273 17.8946C49.9271 17.6403 49.9272 17.386 49.9279 17.1317C49.9286 16.8986 49.9285 16.6656 49.9279 16.4325C49.9279 16.3484 49.928 16.2644 49.9285 16.1803C49.9326 15.358 49.8326 14.7409 49.2484 14.1339C48.3957 13.2783 47.6769 13.1926 46.4996 13.1882C46.3817 13.1881 46.2638 13.1881 46.1459 13.1883C45.9663 13.1884 45.7867 13.1875 45.6071 13.1865C45.4914 13.1864 45.3756 13.1864 45.2598 13.1865C45.1805 13.1859 45.1805 13.1859 45.0996 13.1854C44.6483 13.1875 44.2038 13.2383 43.7902 13.4296C43.7479 13.4488 43.7056 13.468 43.662 13.4877C43.09 13.7619 42.6071 14.305 42.3859 14.8972C42.175 15.6241 42.221 16.42 42.2219 17.1704C42.2218 17.2558 42.2218 17.3412 42.2217 17.4266C42.2215 17.6593 42.2216 17.8921 42.2217 18.1248C42.2218 18.3765 42.2217 18.6283 42.2216 18.88C42.2214 19.3722 42.2214 19.8645 42.2216 20.3567C42.2216 20.7566 42.2216 21.1565 42.2216 21.5564C42.2216 21.6418 42.2216 21.6418 42.2216 21.729C42.2216 21.8448 42.2216 21.9606 42.2216 22.0764C42.2214 23.1605 42.2216 24.2446 42.2218 25.3288C42.2219 26.2594 42.2219 27.19 42.2217 28.1207C42.2215 29.2018 42.2215 30.283 42.2216 31.3642C42.2216 31.4794 42.2216 31.5945 42.2216 31.7097C42.2216 31.7664 42.2216 31.8231 42.2216 31.8814C42.2217 32.2812 42.2216 32.681 42.2215 33.0808C42.2214 33.5674 42.2214 34.054 42.2216 34.5406C42.2217 34.789 42.2218 35.0374 42.2217 35.2857C42.2215 35.5128 42.2216 35.74 42.2218 35.9671C42.2218 36.0494 42.2218 36.1318 42.2217 36.2142C42.2216 36.3257 42.2217 36.4373 42.2219 36.5488C42.2219 36.6109 42.2219 36.673 42.2219 36.7369C42.2284 36.9494 42.253 37.0639 42.3733 37.2417C42.6236 37.4769 42.9639 37.4249 43.2864 37.4215C43.3693 37.4218 43.4522 37.4222 43.5352 37.4228C43.755 37.4239 43.9748 37.4231 44.1946 37.4215C44.2838 37.6314 44.2803 37.8349 44.2784 38.0589C44.2784 38.121 44.2784 38.121 44.2783 38.1843C44.2781 38.3231 44.2773 38.4618 44.2765 38.6006C44.2763 38.7 44.276 38.7995 44.2758 38.899C44.2753 39.1132 44.2746 39.3274 44.2737 39.5417C44.2723 39.8804 44.2716 40.2191 44.271 40.5578C44.2692 41.521 44.2665 42.4842 44.2631 43.4474C44.2612 43.9793 44.2599 44.5113 44.2592 45.0432C44.2587 45.38 44.2575 45.7167 44.2558 46.0534C44.2549 46.2629 44.2547 46.4724 44.2546 46.6819C44.2544 46.779 44.254 46.8762 44.2533 46.9734C44.2524 47.106 44.2524 47.2386 44.2526 47.3712C44.2522 47.4097 44.2517 47.4481 44.2512 47.4877C44.2539 47.868 44.3499 48.1246 44.7245 48.2453ZM45.2469 46.9796C45.2474 46.8953 45.2483 46.811 45.2496 46.7268C45.2501 46.6623 45.2501 46.6623 45.2506 46.5965C45.2515 46.4901 45.2529 46.3837 45.2543 46.2773C45.4418 46.2024 45.6005 46.1928 45.8016 46.1943C45.8623 46.1945 45.9231 46.1948 45.9857 46.195C46.0487 46.1956 46.1118 46.1963 46.1768 46.1969C46.2728 46.1974 46.2728 46.1974 46.3706 46.198C46.5284 46.1989 46.6861 46.2001 46.8438 46.2017C46.866 46.4645 46.8867 46.7253 46.8841 46.9893C46.8833 47.0674 46.8825 47.1454 46.8817 47.2235C46.5316 47.2541 46.1852 47.2682 45.8338 47.2684C45.7862 47.2689 45.7385 47.2694 45.6893 47.2698C45.6213 47.2699 45.6213 47.2699 45.5519 47.2701C45.5111 47.2702 45.4702 47.2704 45.4281 47.2705C45.23 47.252 45.2539 47.1726 45.2469 46.9796ZM45.2469 44.9359C45.2474 44.8516 45.2483 44.7674 45.2496 44.6831C45.2501 44.6186 45.2501 44.6186 45.2506 44.5529C45.2515 44.4465 45.2529 44.3401 45.2543 44.2337C45.4418 44.1588 45.6005 44.1492 45.8016 44.1506C45.8623 44.1508 45.9231 44.1511 45.9857 44.1513C46.0487 44.152 46.1118 44.1526 46.1768 44.1533C46.2728 44.1538 46.2728 44.1538 46.3706 44.1543C46.5284 44.1552 46.6861 44.1564 46.8438 44.158C46.866 44.4209 46.8867 44.6816 46.8841 44.9457C46.8833 45.0237 46.8825 45.1018 46.8817 45.1798C46.5316 45.2105 46.1852 45.2246 45.8338 45.2248C45.7862 45.2252 45.7385 45.2257 45.6893 45.2262C45.6213 45.2263 45.6213 45.2263 45.5519 45.2264C45.5111 45.2265 45.4702 45.2267 45.4281 45.2269C45.23 45.2083 45.2539 45.1289 45.2469 44.9359ZM45.25 43.0794C45.2502 43.0384 45.2504 42.9973 45.2506 42.9551C45.2508 42.9108 45.2509 42.8665 45.251 42.8209C45.2515 42.751 45.2515 42.751 45.252 42.6796C45.2522 42.6095 45.2522 42.6095 45.2525 42.5379C45.2529 42.422 45.2536 42.306 45.2543 42.19C45.4418 42.1151 45.6005 42.1055 45.8016 42.1069C45.8623 42.1072 45.9231 42.1074 45.9857 42.1077C46.0487 42.1083 46.1118 42.1089 46.1768 42.1096C46.2728 42.1101 46.2728 42.1101 46.3706 42.1106C46.5284 42.1115 46.6861 42.1128 46.8438 42.1143C46.866 42.3772 46.8867 42.6379 46.8841 42.902C46.8837 42.9467 46.8834 42.9915 46.883 43.0376C46.8826 43.0701 46.8821 43.1026 46.8817 43.1362C46.6949 43.2106 46.5361 43.2211 46.3357 43.2206C46.2752 43.2205 46.2146 43.2204 46.1522 43.2203C46.0893 43.2199 46.0264 43.2194 45.9616 43.2189C45.8979 43.2189 45.8343 43.2189 45.7687 43.2189C45.4263 43.2659 45.4263 43.2659 45.25 43.0794ZM45.25 41.0357C45.2502 40.9947 45.2504 40.9537 45.2506 40.9114C45.2508 40.8671 45.2509 40.8228 45.251 40.7772C45.2515 40.7073 45.2515 40.7073 45.252 40.636C45.2522 40.5658 45.2522 40.5658 45.2525 40.4943C45.2529 40.3783 45.2536 40.2623 45.2543 40.1463C45.4418 40.0714 45.6005 40.0618 45.8016 40.0633C45.8623 40.0635 45.9231 40.0638 45.9857 40.064C46.0487 40.0646 46.1118 40.0653 46.1768 40.0659C46.2728 40.0664 46.2728 40.0664 46.3706 40.067C46.5284 40.0679 46.6861 40.0691 46.8438 40.0707C46.866 40.3335 46.8867 40.5943 46.8841 40.8583C46.8837 40.9031 46.8834 40.9478 46.883 40.9939C46.8826 41.0264 46.8821 41.059 46.8817 41.0925C46.6949 41.1669 46.5361 41.1775 46.3357 41.1769C46.2752 41.1768 46.2146 41.1768 46.1522 41.1767C46.0893 41.1762 46.0264 41.1758 45.9616 41.1753C45.8979 41.1753 45.8343 41.1752 45.7687 41.1752C45.4263 41.2223 45.4263 41.2223 45.25 41.0357ZM45.25 38.992C45.2502 38.951 45.2504 38.91 45.2506 38.8677C45.2508 38.8235 45.2509 38.7792 45.251 38.7336C45.2515 38.6636 45.2515 38.6636 45.252 38.5923C45.2522 38.5222 45.2522 38.5222 45.2525 38.4506C45.2529 38.3346 45.2536 38.2187 45.2543 38.1027C45.4418 38.0278 45.6005 38.0182 45.8016 38.0196C45.8623 38.0198 45.9231 38.0201 45.9857 38.0203C46.0487 38.021 46.1118 38.0216 46.1768 38.0223C46.2728 38.0228 46.2728 38.0228 46.3706 38.0233C46.5284 38.0242 46.6861 38.0254 46.8438 38.027C46.866 38.2899 46.8867 38.5506 46.8841 38.8147C46.8837 38.8594 46.8834 38.9041 46.883 38.9502C46.8826 38.9828 46.8821 39.0153 46.8817 39.0488C46.6949 39.1233 46.5361 39.1338 46.3357 39.1332C46.2752 39.1332 46.2146 39.1331 46.1522 39.133C46.0893 39.1325 46.0264 39.1321 45.9616 39.1316C45.8979 39.1316 45.8343 39.1316 45.7687 39.1315C45.4263 39.1786 45.4263 39.1786 45.25 38.992ZM43.2432 36.069C43.243 36.0161 43.243 36.0161 43.2429 35.9621C43.2425 35.8423 43.2425 35.7225 43.2424 35.6027C43.2422 35.5165 43.2421 35.4304 43.2418 35.3443C43.2413 35.1063 43.241 34.8684 43.2408 34.6304C43.2405 34.4266 43.2402 34.2228 43.2398 34.019C43.2385 33.3473 43.2377 32.6755 43.237 32.0038C43.2368 31.8289 43.2366 31.654 43.2364 31.4791C43.2353 30.3937 43.2343 29.3083 43.2336 28.2229C43.2335 27.9713 43.2333 27.7196 43.2332 27.468C43.2331 27.4055 43.2331 27.3429 43.2331 27.2785C43.2324 26.2657 43.2309 25.2528 43.2289 24.24C43.227 23.2007 43.2259 22.1614 43.2256 21.1221C43.2254 20.5384 43.2249 19.9546 43.2233 19.3709C43.222 18.8736 43.2215 18.3764 43.222 17.8791C43.2222 17.6254 43.2221 17.3717 43.2209 17.118C43.2199 16.8856 43.2199 16.6532 43.2208 16.4208C43.2209 16.3369 43.2206 16.253 43.2199 16.169C43.2158 15.6346 43.2594 15.204 43.5785 14.7602C43.9676 14.3798 44.2975 14.2177 44.8457 14.1984C44.902 14.1964 44.902 14.1964 44.9595 14.1943C45.3955 14.1799 45.8317 14.1745 46.2679 14.173C46.3606 14.1726 46.4533 14.1718 46.546 14.1707C47.5908 14.1494 47.5908 14.1494 48.4712 14.6525C49.0433 15.2387 48.931 16.0433 48.9299 16.8071C48.9299 16.8919 48.93 16.9766 48.93 17.0614C48.9301 17.2932 48.9299 17.5249 48.9298 17.7566C48.9296 18.007 48.9296 18.2573 48.9297 18.5077C48.9297 18.941 48.9296 19.3744 48.9294 19.8078C48.9291 20.4343 48.929 21.0609 48.9289 21.6874C48.9288 22.704 48.9286 23.7206 48.9282 24.7373C48.9279 25.7246 48.9276 26.712 48.9274 27.6993C48.9274 27.7602 48.9274 27.8211 48.9274 27.8838C48.9274 28.1893 48.9273 28.4949 48.9273 28.8004C48.9269 31.3334 48.9262 33.8665 48.9254 36.3996C48.8471 36.4059 48.7689 36.4121 48.6906 36.4183C48.6253 36.4235 48.6253 36.4235 48.5586 36.4288C48.4054 36.4394 48.2534 36.4412 48.0999 36.4398C48.0481 36.4395 47.9963 36.4391 47.943 36.4388C47.905 36.4384 47.867 36.4379 47.8278 36.4375C47.7452 36.2197 47.708 35.994 47.667 35.7657C47.6589 35.7213 47.6508 35.6768 47.6424 35.631C47.6157 35.4836 47.5893 35.3361 47.5629 35.1886C47.5537 35.1371 47.5445 35.0856 47.535 35.0326C47.4107 34.3349 47.2895 33.6368 47.1697 32.9384C47.1305 32.7108 47.0913 32.4831 47.052 32.2555C47.0362 32.1641 47.0205 32.0726 47.0047 31.9811C46.9732 31.7982 46.9416 31.6153 46.9101 31.4324C46.8984 31.3644 46.8984 31.3644 46.8864 31.295C46.8707 31.2042 46.8551 31.1134 46.8394 31.0225C46.7982 30.7841 46.7573 30.5455 46.7169 30.3069C46.7084 30.2573 46.7 30.2078 46.6913 30.1567C46.6752 30.0621 46.6591 29.9674 46.6432 29.8727C46.5211 29.1568 46.5211 29.1568 46.2762 28.9819C46.0869 28.9535 46.0869 28.9535 45.8977 28.9819C45.7065 29.1365 45.6384 29.2558 45.5926 29.4951C45.5808 29.5554 45.569 29.6157 45.5568 29.6779C45.5442 29.7486 45.5316 29.8194 45.5192 29.8902C45.5121 29.9302 45.5049 29.9702 45.4976 30.0115C45.4482 30.2886 45.4009 30.5661 45.3543 30.8438C45.3153 31.0748 45.2753 31.3056 45.2354 31.5364C45.2196 31.6279 45.2039 31.7194 45.1881 31.8108C45.1764 31.8787 45.1764 31.8787 45.1644 31.948C44.9043 33.4571 44.9043 33.4571 44.8806 33.5943C44.8648 33.6857 44.8491 33.7771 44.8333 33.8685C44.7937 34.0981 44.7542 34.3277 44.715 34.5573C44.6099 35.1724 44.4991 35.7863 44.3839 36.3996C44.1092 36.4228 43.8366 36.4427 43.5607 36.4422C43.5094 36.4423 43.4581 36.4424 43.4052 36.4425C43.1709 36.4326 43.2436 36.2724 43.2432 36.069ZM45.3679 36.3996C45.385 36.2609 45.4049 36.1237 45.427 35.9857C45.4338 35.9422 45.4407 35.8986 45.4477 35.8538C45.5309 35.3311 45.6248 34.8103 45.7178 34.2893C45.7629 34.0357 45.8067 33.7819 45.8504 33.5281C45.8579 33.4845 45.8654 33.441 45.8732 33.3961C45.8803 33.3547 45.8874 33.3132 45.8947 33.2706C45.9016 33.231 45.9085 33.1914 45.9155 33.1507C45.9294 33.068 45.9425 32.9852 45.955 32.9023C45.9756 32.682 45.9756 32.682 46.0869 32.5015C46.1427 32.6591 46.1825 32.8128 46.213 32.9771C46.2221 33.0254 46.2311 33.0736 46.2404 33.1233C46.2546 33.2007 46.2546 33.2007 46.2691 33.2797C46.279 33.3335 46.289 33.3874 46.2993 33.4428C46.3803 33.8825 46.4575 34.3229 46.5322 34.7637C46.5648 34.9556 46.5984 35.1474 46.6327 35.3391C46.6415 35.3887 46.6503 35.4383 46.6594 35.4894C46.6762 35.5842 46.6933 35.679 46.7105 35.7737C46.7218 35.838 46.7218 35.838 46.7334 35.9036C46.7401 35.941 46.7469 35.9785 46.7538 36.017C46.771 36.1579 46.7704 36.2957 46.7682 36.4375C46.5419 36.4386 46.3156 36.4392 46.0893 36.4398C45.9923 36.4403 45.9923 36.4403 45.8933 36.4408C45.832 36.4409 45.7706 36.441 45.7074 36.4412C45.6506 36.4414 45.5937 36.4416 45.5351 36.4418C45.412 36.4524 45.412 36.4524 45.3679 36.3996Z"/>
</mask>
<path d="M44.7245 48.2453C44.9346 48.2686 45.1434 48.271 45.3547 48.2721C45.4156 48.2727 45.4766 48.2733 45.5393 48.2739C45.6679 48.2748 45.7965 48.2753 45.9252 48.2755C46.1216 48.2761 46.318 48.2793 46.5144 48.2827C46.6395 48.2832 46.7647 48.2837 46.8898 48.2839C46.9776 48.2858 46.9776 48.2858 47.0673 48.2878C47.321 48.2857 47.5286 48.2797 47.7327 48.1176C47.8687 47.9421 47.8851 47.8058 47.8926 47.5864C47.8949 47.5222 47.8971 47.458 47.8994 47.3919C47.9066 47.0326 47.9088 46.6734 47.9084 46.314C47.9085 46.229 47.9085 46.1441 47.9086 46.0591C47.9088 45.8307 47.9087 45.6022 47.9086 45.3737C47.9085 45.1335 47.9086 44.8932 47.9087 44.653C47.9087 44.2498 47.9086 43.8467 47.9085 43.4436C47.9083 42.9788 47.9083 42.5139 47.9085 42.0491C47.9087 41.6484 47.9087 41.2478 47.9086 40.8471C47.9086 40.6085 47.9086 40.3698 47.9087 40.1312C47.9088 39.9069 47.9087 39.6826 47.9085 39.4584C47.9084 39.3765 47.9085 39.2946 47.9085 39.2126C47.9089 38.8178 47.9063 38.4252 47.8722 38.0315C47.8622 37.8501 47.8813 37.6772 47.9035 37.4971C48.0841 37.4258 48.2328 37.4134 48.4263 37.4167C48.5107 37.4176 48.5107 37.4176 48.5969 37.4185C48.6553 37.4195 48.7138 37.4205 48.774 37.4215C48.8899 37.4234 49.0058 37.425 49.1217 37.4262C49.173 37.4271 49.2242 37.4279 49.2771 37.4288C49.4753 37.4184 49.6048 37.3719 49.7698 37.263C50.048 36.8683 49.915 36.1574 49.9149 35.6851C49.915 35.5979 49.9152 35.5108 49.9153 35.4236C49.9157 35.1853 49.9159 34.9469 49.916 34.7086C49.9161 34.4511 49.9165 34.1936 49.9168 33.9361C49.9175 33.3152 49.9179 32.6942 49.9183 32.0733C49.9184 31.7806 49.9186 31.4879 49.9188 31.1952C49.9195 30.2219 49.92 29.2487 49.9203 28.2755C49.9204 28.0233 49.9204 27.7711 49.9205 27.5189C49.9205 27.4562 49.9206 27.3936 49.9206 27.329C49.9209 26.3128 49.9218 25.2966 49.9231 24.2805C49.9243 23.2365 49.925 22.1924 49.9251 21.1484C49.9252 20.5625 49.9255 19.9766 49.9265 19.3907C49.9273 18.892 49.9276 18.3933 49.9273 17.8946C49.9271 17.6403 49.9272 17.386 49.9279 17.1317C49.9286 16.8986 49.9285 16.6656 49.9279 16.4325C49.9279 16.3484 49.928 16.2644 49.9285 16.1803C49.9326 15.358 49.8326 14.7409 49.2484 14.1339C48.3957 13.2783 47.6769 13.1926 46.4996 13.1882C46.3817 13.1881 46.2638 13.1881 46.1459 13.1883C45.9663 13.1884 45.7867 13.1875 45.6071 13.1865C45.4914 13.1864 45.3756 13.1864 45.2598 13.1865C45.1805 13.1859 45.1805 13.1859 45.0996 13.1854C44.6483 13.1875 44.2038 13.2383 43.7902 13.4296C43.7479 13.4488 43.7056 13.468 43.662 13.4877C43.09 13.7619 42.6071 14.305 42.3859 14.8972C42.175 15.6241 42.221 16.42 42.2219 17.1704C42.2218 17.2558 42.2218 17.3412 42.2217 17.4266C42.2215 17.6593 42.2216 17.8921 42.2217 18.1248C42.2218 18.3765 42.2217 18.6283 42.2216 18.88C42.2214 19.3722 42.2214 19.8645 42.2216 20.3567C42.2216 20.7566 42.2216 21.1565 42.2216 21.5564C42.2216 21.6418 42.2216 21.6418 42.2216 21.729C42.2216 21.8448 42.2216 21.9606 42.2216 22.0764C42.2214 23.1605 42.2216 24.2446 42.2218 25.3288C42.2219 26.2594 42.2219 27.19 42.2217 28.1207C42.2215 29.2018 42.2215 30.283 42.2216 31.3642C42.2216 31.4794 42.2216 31.5945 42.2216 31.7097C42.2216 31.7664 42.2216 31.8231 42.2216 31.8814C42.2217 32.2812 42.2216 32.681 42.2215 33.0808C42.2214 33.5674 42.2214 34.054 42.2216 34.5406C42.2217 34.789 42.2218 35.0374 42.2217 35.2857C42.2215 35.5128 42.2216 35.74 42.2218 35.9671C42.2218 36.0494 42.2218 36.1318 42.2217 36.2142C42.2216 36.3257 42.2217 36.4373 42.2219 36.5488C42.2219 36.6109 42.2219 36.673 42.2219 36.7369C42.2284 36.9494 42.253 37.0639 42.3733 37.2417C42.6236 37.4769 42.9639 37.4249 43.2864 37.4215C43.3693 37.4218 43.4522 37.4222 43.5352 37.4228C43.755 37.4239 43.9748 37.4231 44.1946 37.4215C44.2838 37.6314 44.2803 37.8349 44.2784 38.0589C44.2784 38.121 44.2784 38.121 44.2783 38.1843C44.2781 38.3231 44.2773 38.4618 44.2765 38.6006C44.2763 38.7 44.276 38.7995 44.2758 38.899C44.2753 39.1132 44.2746 39.3274 44.2737 39.5417C44.2723 39.8804 44.2716 40.2191 44.271 40.5578C44.2692 41.521 44.2665 42.4842 44.2631 43.4474C44.2612 43.9793 44.2599 44.5113 44.2592 45.0432C44.2587 45.38 44.2575 45.7167 44.2558 46.0534C44.2549 46.2629 44.2547 46.4724 44.2546 46.6819C44.2544 46.779 44.254 46.8762 44.2533 46.9734C44.2524 47.106 44.2524 47.2386 44.2526 47.3712C44.2522 47.4097 44.2517 47.4481 44.2512 47.4877C44.2539 47.868 44.3499 48.1246 44.7245 48.2453ZM45.2469 46.9796C45.2474 46.8953 45.2483 46.811 45.2496 46.7268C45.2501 46.6623 45.2501 46.6623 45.2506 46.5965C45.2515 46.4901 45.2529 46.3837 45.2543 46.2773C45.4418 46.2024 45.6005 46.1928 45.8016 46.1943C45.8623 46.1945 45.9231 46.1948 45.9857 46.195C46.0487 46.1956 46.1118 46.1963 46.1768 46.1969C46.2728 46.1974 46.2728 46.1974 46.3706 46.198C46.5284 46.1989 46.6861 46.2001 46.8438 46.2017C46.866 46.4645 46.8867 46.7253 46.8841 46.9893C46.8833 47.0674 46.8825 47.1454 46.8817 47.2235C46.5316 47.2541 46.1852 47.2682 45.8338 47.2684C45.7862 47.2689 45.7385 47.2694 45.6893 47.2698C45.6213 47.2699 45.6213 47.2699 45.5519 47.2701C45.5111 47.2702 45.4702 47.2704 45.4281 47.2705C45.23 47.252 45.2539 47.1726 45.2469 46.9796ZM45.2469 44.9359C45.2474 44.8516 45.2483 44.7674 45.2496 44.6831C45.2501 44.6186 45.2501 44.6186 45.2506 44.5529C45.2515 44.4465 45.2529 44.3401 45.2543 44.2337C45.4418 44.1588 45.6005 44.1492 45.8016 44.1506C45.8623 44.1508 45.9231 44.1511 45.9857 44.1513C46.0487 44.152 46.1118 44.1526 46.1768 44.1533C46.2728 44.1538 46.2728 44.1538 46.3706 44.1543C46.5284 44.1552 46.6861 44.1564 46.8438 44.158C46.866 44.4209 46.8867 44.6816 46.8841 44.9457C46.8833 45.0237 46.8825 45.1018 46.8817 45.1798C46.5316 45.2105 46.1852 45.2246 45.8338 45.2248C45.7862 45.2252 45.7385 45.2257 45.6893 45.2262C45.6213 45.2263 45.6213 45.2263 45.5519 45.2264C45.5111 45.2265 45.4702 45.2267 45.4281 45.2269C45.23 45.2083 45.2539 45.1289 45.2469 44.9359ZM45.25 43.0794C45.2502 43.0384 45.2504 42.9973 45.2506 42.9551C45.2508 42.9108 45.2509 42.8665 45.251 42.8209C45.2515 42.751 45.2515 42.751 45.252 42.6796C45.2522 42.6095 45.2522 42.6095 45.2525 42.5379C45.2529 42.422 45.2536 42.306 45.2543 42.19C45.4418 42.1151 45.6005 42.1055 45.8016 42.1069C45.8623 42.1072 45.9231 42.1074 45.9857 42.1077C46.0487 42.1083 46.1118 42.1089 46.1768 42.1096C46.2728 42.1101 46.2728 42.1101 46.3706 42.1106C46.5284 42.1115 46.6861 42.1128 46.8438 42.1143C46.866 42.3772 46.8867 42.6379 46.8841 42.902C46.8837 42.9467 46.8834 42.9915 46.883 43.0376C46.8826 43.0701 46.8821 43.1026 46.8817 43.1362C46.6949 43.2106 46.5361 43.2211 46.3357 43.2206C46.2752 43.2205 46.2146 43.2204 46.1522 43.2203C46.0893 43.2199 46.0264 43.2194 45.9616 43.2189C45.8979 43.2189 45.8343 43.2189 45.7687 43.2189C45.4263 43.2659 45.4263 43.2659 45.25 43.0794ZM45.25 41.0357C45.2502 40.9947 45.2504 40.9537 45.2506 40.9114C45.2508 40.8671 45.2509 40.8228 45.251 40.7772C45.2515 40.7073 45.2515 40.7073 45.252 40.636C45.2522 40.5658 45.2522 40.5658 45.2525 40.4943C45.2529 40.3783 45.2536 40.2623 45.2543 40.1463C45.4418 40.0714 45.6005 40.0618 45.8016 40.0633C45.8623 40.0635 45.9231 40.0638 45.9857 40.064C46.0487 40.0646 46.1118 40.0653 46.1768 40.0659C46.2728 40.0664 46.2728 40.0664 46.3706 40.067C46.5284 40.0679 46.6861 40.0691 46.8438 40.0707C46.866 40.3335 46.8867 40.5943 46.8841 40.8583C46.8837 40.9031 46.8834 40.9478 46.883 40.9939C46.8826 41.0264 46.8821 41.059 46.8817 41.0925C46.6949 41.1669 46.5361 41.1775 46.3357 41.1769C46.2752 41.1768 46.2146 41.1768 46.1522 41.1767C46.0893 41.1762 46.0264 41.1758 45.9616 41.1753C45.8979 41.1753 45.8343 41.1752 45.7687 41.1752C45.4263 41.2223 45.4263 41.2223 45.25 41.0357ZM45.25 38.992C45.2502 38.951 45.2504 38.91 45.2506 38.8677C45.2508 38.8235 45.2509 38.7792 45.251 38.7336C45.2515 38.6636 45.2515 38.6636 45.252 38.5923C45.2522 38.5222 45.2522 38.5222 45.2525 38.4506C45.2529 38.3346 45.2536 38.2187 45.2543 38.1027C45.4418 38.0278 45.6005 38.0182 45.8016 38.0196C45.8623 38.0198 45.9231 38.0201 45.9857 38.0203C46.0487 38.021 46.1118 38.0216 46.1768 38.0223C46.2728 38.0228 46.2728 38.0228 46.3706 38.0233C46.5284 38.0242 46.6861 38.0254 46.8438 38.027C46.866 38.2899 46.8867 38.5506 46.8841 38.8147C46.8837 38.8594 46.8834 38.9041 46.883 38.9502C46.8826 38.9828 46.8821 39.0153 46.8817 39.0488C46.6949 39.1233 46.5361 39.1338 46.3357 39.1332C46.2752 39.1332 46.2146 39.1331 46.1522 39.133C46.0893 39.1325 46.0264 39.1321 45.9616 39.1316C45.8979 39.1316 45.8343 39.1316 45.7687 39.1315C45.4263 39.1786 45.4263 39.1786 45.25 38.992ZM43.2432 36.069C43.243 36.0161 43.243 36.0161 43.2429 35.9621C43.2425 35.8423 43.2425 35.7225 43.2424 35.6027C43.2422 35.5165 43.2421 35.4304 43.2418 35.3443C43.2413 35.1063 43.241 34.8684 43.2408 34.6304C43.2405 34.4266 43.2402 34.2228 43.2398 34.019C43.2385 33.3473 43.2377 32.6755 43.237 32.0038C43.2368 31.8289 43.2366 31.654 43.2364 31.4791C43.2353 30.3937 43.2343 29.3083 43.2336 28.2229C43.2335 27.9713 43.2333 27.7196 43.2332 27.468C43.2331 27.4055 43.2331 27.3429 43.2331 27.2785C43.2324 26.2657 43.2309 25.2528 43.2289 24.24C43.227 23.2007 43.2259 22.1614 43.2256 21.1221C43.2254 20.5384 43.2249 19.9546 43.2233 19.3709C43.222 18.8736 43.2215 18.3764 43.222 17.8791C43.2222 17.6254 43.2221 17.3717 43.2209 17.118C43.2199 16.8856 43.2199 16.6532 43.2208 16.4208C43.2209 16.3369 43.2206 16.253 43.2199 16.169C43.2158 15.6346 43.2594 15.204 43.5785 14.7602C43.9676 14.3798 44.2975 14.2177 44.8457 14.1984C44.902 14.1964 44.902 14.1964 44.9595 14.1943C45.3955 14.1799 45.8317 14.1745 46.2679 14.173C46.3606 14.1726 46.4533 14.1718 46.546 14.1707C47.5908 14.1494 47.5908 14.1494 48.4712 14.6525C49.0433 15.2387 48.931 16.0433 48.9299 16.8071C48.9299 16.8919 48.93 16.9766 48.93 17.0614C48.9301 17.2932 48.9299 17.5249 48.9298 17.7566C48.9296 18.007 48.9296 18.2573 48.9297 18.5077C48.9297 18.941 48.9296 19.3744 48.9294 19.8078C48.9291 20.4343 48.929 21.0609 48.9289 21.6874C48.9288 22.704 48.9286 23.7206 48.9282 24.7373C48.9279 25.7246 48.9276 26.712 48.9274 27.6993C48.9274 27.7602 48.9274 27.8211 48.9274 27.8838C48.9274 28.1893 48.9273 28.4949 48.9273 28.8004C48.9269 31.3334 48.9262 33.8665 48.9254 36.3996C48.8471 36.4059 48.7689 36.4121 48.6906 36.4183C48.6253 36.4235 48.6253 36.4235 48.5586 36.4288C48.4054 36.4394 48.2534 36.4412 48.0999 36.4398C48.0481 36.4395 47.9963 36.4391 47.943 36.4388C47.905 36.4384 47.867 36.4379 47.8278 36.4375C47.7452 36.2197 47.708 35.994 47.667 35.7657C47.6589 35.7213 47.6508 35.6768 47.6424 35.631C47.6157 35.4836 47.5893 35.3361 47.5629 35.1886C47.5537 35.1371 47.5445 35.0856 47.535 35.0326C47.4107 34.3349 47.2895 33.6368 47.1697 32.9384C47.1305 32.7108 47.0913 32.4831 47.052 32.2555C47.0362 32.1641 47.0205 32.0726 47.0047 31.9811C46.9732 31.7982 46.9416 31.6153 46.9101 31.4324C46.8984 31.3644 46.8984 31.3644 46.8864 31.295C46.8707 31.2042 46.8551 31.1134 46.8394 31.0225C46.7982 30.7841 46.7573 30.5455 46.7169 30.3069C46.7084 30.2573 46.7 30.2078 46.6913 30.1567C46.6752 30.0621 46.6591 29.9674 46.6432 29.8727C46.5211 29.1568 46.5211 29.1568 46.2762 28.9819C46.0869 28.9535 46.0869 28.9535 45.8977 28.9819C45.7065 29.1365 45.6384 29.2558 45.5926 29.4951C45.5808 29.5554 45.569 29.6157 45.5568 29.6779C45.5442 29.7486 45.5316 29.8194 45.5192 29.8902C45.5121 29.9302 45.5049 29.9702 45.4976 30.0115C45.4482 30.2886 45.4009 30.5661 45.3543 30.8438C45.3153 31.0748 45.2753 31.3056 45.2354 31.5364C45.2196 31.6279 45.2039 31.7194 45.1881 31.8108C45.1764 31.8787 45.1764 31.8787 45.1644 31.948C44.9043 33.4571 44.9043 33.4571 44.8806 33.5943C44.8648 33.6857 44.8491 33.7771 44.8333 33.8685C44.7937 34.0981 44.7542 34.3277 44.715 34.5573C44.6099 35.1724 44.4991 35.7863 44.3839 36.3996C44.1092 36.4228 43.8366 36.4427 43.5607 36.4422C43.5094 36.4423 43.4581 36.4424 43.4052 36.4425C43.1709 36.4326 43.2436 36.2724 43.2432 36.069ZM45.3679 36.3996C45.385 36.2609 45.4049 36.1237 45.427 35.9857C45.4338 35.9422 45.4407 35.8986 45.4477 35.8538C45.5309 35.3311 45.6248 34.8103 45.7178 34.2893C45.7629 34.0357 45.8067 33.7819 45.8504 33.5281C45.8579 33.4845 45.8654 33.441 45.8732 33.3961C45.8803 33.3547 45.8874 33.3132 45.8947 33.2706C45.9016 33.231 45.9085 33.1914 45.9155 33.1507C45.9294 33.068 45.9425 32.9852 45.955 32.9023C45.9756 32.682 45.9756 32.682 46.0869 32.5015C46.1427 32.6591 46.1825 32.8128 46.213 32.9771C46.2221 33.0254 46.2311 33.0736 46.2404 33.1233C46.2546 33.2007 46.2546 33.2007 46.2691 33.2797C46.279 33.3335 46.289 33.3874 46.2993 33.4428C46.3803 33.8825 46.4575 34.3229 46.5322 34.7637C46.5648 34.9556 46.5984 35.1474 46.6327 35.3391C46.6415 35.3887 46.6503 35.4383 46.6594 35.4894C46.6762 35.5842 46.6933 35.679 46.7105 35.7737C46.7218 35.838 46.7218 35.838 46.7334 35.9036C46.7401 35.941 46.7469 35.9785 46.7538 36.017C46.771 36.1579 46.7704 36.2957 46.7682 36.4375C46.5419 36.4386 46.3156 36.4392 46.0893 36.4398C45.9923 36.4403 45.9923 36.4403 45.8933 36.4408C45.832 36.4409 45.7706 36.441 45.7074 36.4412C45.6506 36.4414 45.5937 36.4416 45.5351 36.4418C45.412 36.4524 45.412 36.4524 45.3679 36.3996Z" fill="white" stroke="white" stroke-width="12" mask="url(#path-2-inside-2_294_309)"/>
<path d="M31.9976 1.78888L31.9976 55.0503" stroke="white" stroke-width="2" stroke-linecap="round"/>
</svg>
