<svg width="187" height="118" viewBox="0 0 187 118" fill="none" xmlns="http://www.w3.org/2000/svg">
<rect x="2.92725" y="11.4178" width="95" height="95" fill="#F4D03F" stroke="#943126" stroke-width="5"/>
<rect x="41.3481" y="30.9357" width="59.0791" height="63.8521" fill="#F4D03F"/>
<path d="M87.115 62.4178L81.9332 93.9178H73.8877L82.615 41.5541H90.3877L89.0241 49.736H89.7059C91.3422 47.0769 93.5582 44.9405 96.3536 43.3269C99.1491 41.6905 102.524 40.8723 106.479 40.8723C109.979 40.8723 112.933 41.5996 115.342 43.0541C117.774 44.486 119.49 46.6678 120.49 49.5996C121.513 52.5087 121.66 56.1905 120.933 60.6451L115.342 93.9178H107.297L112.751 61.1905C113.433 57.0996 112.899 53.8951 111.149 51.5769C109.422 49.2587 106.683 48.0996 102.933 48.0996C100.342 48.0996 97.9445 48.6564 95.74 49.7701C93.5582 50.8837 91.7059 52.5087 90.1832 54.6451C88.6832 56.7814 87.6604 59.3723 87.115 62.4178ZM149.748 95.0087C145.362 95.0087 141.68 93.9064 138.703 91.7019C135.726 89.4746 133.623 86.3382 132.396 82.2928C131.192 78.2246 131.044 73.4178 131.953 67.8723C132.885 62.3723 134.623 57.5996 137.169 53.5541C139.737 49.5087 142.885 46.3837 146.612 44.1791C150.339 41.9746 154.408 40.8723 158.817 40.8723C162.226 40.8723 164.828 41.4405 166.623 42.5769C168.442 43.6905 169.76 44.9632 170.578 46.3951C171.396 47.8041 172.021 48.9632 172.453 49.8723H173.135L177.43 24.0996H185.476L173.885 93.9178H166.112L167.476 85.8723H166.521C165.771 86.8269 164.726 88.0314 163.385 89.486C162.044 90.9178 160.271 92.2019 158.067 93.3382C155.885 94.4519 153.112 95.0087 149.748 95.0087ZM151.726 87.7814C154.953 87.7814 157.839 86.9405 160.385 85.2587C162.953 83.5541 165.089 81.2019 166.794 78.2019C168.498 75.1791 169.68 71.6905 170.339 67.736C170.998 63.8269 170.976 60.4064 170.271 57.4746C169.567 54.5201 168.214 52.2246 166.214 50.5882C164.214 48.9291 161.567 48.0996 158.271 48.0996C154.885 48.0996 151.942 48.9746 149.442 50.7246C146.942 52.4519 144.908 54.8041 143.339 57.7814C141.771 60.736 140.68 64.0541 140.067 67.736C139.453 71.4632 139.442 74.8496 140.033 77.8951C140.623 80.9178 141.873 83.3269 143.783 85.1223C145.714 86.8951 148.362 87.7814 151.726 87.7814Z" fill="#943126"/>
<path d="M24.6044 94.7878L25.6953 88.6515L52.8316 63.4242C56.0135 60.4696 58.6612 57.8901 60.7748 55.6856C62.9112 53.481 64.5703 51.4128 65.7521 49.481C66.9566 47.5492 67.7407 45.5151 68.1044 43.3787C68.5135 40.9242 68.2975 38.7992 67.4566 37.0037C66.6157 35.2083 65.2862 33.8219 63.468 32.8446C61.6498 31.8674 59.468 31.3787 56.9225 31.3787C54.2407 31.3787 51.7975 31.9356 49.593 33.0492C47.3884 34.1401 45.5589 35.6856 44.1044 37.6856C42.6498 39.6628 41.6953 41.9696 41.2407 44.606H33.1953C33.8771 40.5151 35.4339 36.9242 37.8657 33.8333C40.3203 30.7424 43.3316 28.3333 46.8998 26.606C50.4907 24.8787 54.3316 24.0151 58.4225 24.0151C62.5135 24.0151 65.9794 24.8787 68.8203 26.606C71.6612 28.3333 73.718 30.6628 74.9907 33.5946C76.2635 36.5265 76.6044 39.7878 76.0135 43.3787C75.5589 45.9696 74.6612 48.481 73.3203 50.9128C71.9794 53.3446 69.9225 56.0606 67.1498 59.0606C64.3998 62.0378 60.6725 65.6742 55.968 69.9696L37.5589 86.7424L37.4225 87.2878H69.8771L68.6498 94.7878H24.6044Z" fill="#943126"/>
</svg>
