<?xml version="1.0" standalone="no"?>
<!DOCTYPE svg PUBLIC "-//W3C//DTD SVG 20010904//EN"
 "http://www.w3.org/TR/2001/REC-SVG-20010904/DTD/svg10.dtd">
<svg version="1.0" xmlns="http://www.w3.org/2000/svg"
 width="512.000000pt" height="512.000000pt" viewBox="0 0 512.000000 512.000000"
 preserveAspectRatio="xMidYMid meet">

<g transform="translate(0.000000,512.000000) scale(0.100000,-0.100000)"
fill="#000000" stroke="none">
<path d="M854 4421 c-161 -106 -497 -355 -517 -383 -21 -28 -19 -58 7 -93 14
-19 28 -20 280 -23 l266 -3 0 -169 0 -169 -72 -21 c-251 -73 -453 -159 -564
-242 -64 -48 -119 -109 -150 -168 -18 -33 -19 -75 -19 -950 l0 -915 24 -45
c38 -72 62 -99 136 -157 280 -220 912 -371 1775 -423 215 -13 834 -13 1053 0
746 45 1281 152 1633 326 151 74 256 160 302 248 l27 51 0 915 0 915 -22 40
c-84 156 -308 289 -658 391 l-110 32 -3 171 -2 171 255 0 256 0 24 25 c30 29
33 74 8 103 -20 22 -415 308 -531 383 -76 50 -99 57 -132 39 -35 -19 -40 -74
-40 -469 l0 -384 -32 6 c-365 65 -638 101 -853 112 -160 9 -155 7 -155 60 l0
45 95 0 c88 0 98 2 120 25 l25 24 0 271 0 271 -25 24 -24 25 -671 0 -671 0
-24 -25 -25 -24 0 -271 0 -271 25 -24 c22 -23 32 -25 120 -25 l95 0 0 -45 c0
-54 14 -49 -209 -64 -191 -13 -417 -41 -621 -77 -80 -14 -159 -28 -177 -31
l-32 -6 -3 413 -3 412 -24 19 c-37 30 -62 23 -157 -40z m2266 -261 l0 -160
-560 0 -560 0 0 160 0 160 560 0 560 0 0 -160z m-2243 -77 c-3 -2 -53 -2 -112
-1 l-107 3 108 78 109 77 3 -76 c2 -42 1 -78 -1 -81z m3486 74 c53 -38 97 -71
97 -73 0 -2 -49 -4 -110 -4 l-110 0 0 81 c0 61 3 78 13 73 6 -4 56 -39 110
-77z m-1483 -359 l0 -43 -320 0 -320 0 0 43 0 42 320 0 320 0 0 -42z m65 -208
c605 -33 1146 -122 1518 -250 221 -76 355 -159 397 -245 33 -67 22 -104 -49
-176 -69 -68 -200 -135 -387 -197 l-121 -40 -134 33 c-74 18 -192 42 -264 54
-71 12 -143 24 -159 27 -27 6 -23 12 153 188 184 185 194 200 175 251 -10 25
-62 48 -93 40 -16 -4 -112 -92 -248 -227 l-221 -220 -174 16 c-95 9 -291 22
-435 28 l-263 12 0 253 0 254 -25 24 c-32 33 -78 33 -110 0 l-25 -24 0 -254 0
-253 -277 -12 c-153 -7 -350 -19 -437 -28 l-159 -15 -227 225 c-202 202 -229
226 -258 226 -44 0 -82 -38 -82 -81 0 -29 21 -54 181 -215 205 -206 199 -182
54 -204 -75 -12 -368 -73 -423 -89 -29 -9 -53 -4 -155 30 -180 58 -317 128
-387 197 -71 69 -82 107 -52 175 104 236 957 452 1977 500 156 8 539 6 710 -3z
m-2525 -930 c735 -369 2621 -454 3775 -170 275 68 492 151 623 237 l62 42 0
-315 c0 -242 -3 -322 -14 -347 -56 -133 -358 -268 -815 -361 -780 -161 -1786
-190 -2586 -75 -373 53 -739 148 -961 249 -105 47 -203 118 -235 169 l-29 45
0 317 0 318 53 -36 c28 -19 86 -52 127 -73z m2770 35 c298 -25 730 -81 730
-95 0 -15 -499 -78 -810 -102 -248 -19 -907 -16 -1160 5 -222 19 -410 40 -560
63 -52 8 -116 17 -142 21 -27 3 -48 9 -48 13 0 8 235 43 465 69 146 17 320 30
570 45 139 8 783 -4 955 -19z m-2780 -910 c614 -307 2015 -430 3205 -280 551
70 1010 202 1216 350 l49 35 0 -275 c0 -257 -1 -279 -20 -315 -105 -206 -817
-411 -1652 -476 l-88 -6 0 206 c0 206 0 207 -25 231 l-24 25 -511 0 -511 0
-24 -25 c-25 -24 -25 -25 -25 -231 l0 -206 -87 6 c-837 65 -1548 270 -1654
477 -17 35 -19 61 -19 313 l0 275 53 -36 c28 -19 81 -50 117 -68z m2550 -818
l0 -154 -97 -6 c-127 -9 -460 -9 -596 0 l-107 6 0 154 0 153 400 0 400 0 0
-153z"/>
<path d="M425 2455 c-24 -23 -25 -28 -25 -175 0 -147 1 -152 25 -175 15 -16
36 -25 55 -25 19 0 40 9 55 25 24 23 25 28 25 175 0 147 -1 152 -25 175 -15
16 -36 25 -55 25 -19 0 -40 -9 -55 -25z"/>
<path d="M4585 2455 c-24 -23 -25 -28 -25 -175 0 -147 1 -152 25 -175 15 -16
36 -25 55 -25 19 0 40 9 55 25 24 23 25 28 25 175 0 147 -1 152 -25 175 -15
16 -36 25 -55 25 -19 0 -40 -9 -55 -25z"/>
<path d="M985 2295 c-24 -23 -25 -28 -25 -175 0 -147 1 -152 25 -175 15 -16
36 -25 55 -25 19 0 40 9 55 25 24 23 25 28 25 175 0 147 -1 152 -25 175 -15
16 -36 25 -55 25 -19 0 -40 -9 -55 -25z"/>
<path d="M4025 2295 c-24 -23 -25 -28 -25 -175 0 -147 1 -152 25 -175 15 -16
36 -25 55 -25 19 0 40 9 55 25 24 23 25 28 25 175 0 147 -1 152 -25 175 -15
16 -36 25 -55 25 -19 0 -40 -9 -55 -25z"/>
<path d="M1705 2135 c-24 -23 -25 -28 -25 -175 0 -147 1 -152 25 -175 15 -16
36 -25 55 -25 19 0 40 9 55 25 24 23 25 28 25 175 0 147 -1 152 -25 175 -15
16 -36 25 -55 25 -19 0 -40 -9 -55 -25z"/>
<path d="M3305 2135 c-24 -23 -25 -28 -25 -175 0 -147 1 -152 25 -175 15 -16
36 -25 55 -25 19 0 40 9 55 25 24 23 25 28 25 175 0 147 -1 152 -25 175 -15
16 -36 25 -55 25 -19 0 -40 -9 -55 -25z"/>
<path d="M2505 2095 c-24 -23 -25 -28 -25 -175 0 -147 1 -152 25 -175 15 -16
36 -25 55 -25 19 0 40 9 55 25 24 23 25 28 25 175 0 147 -1 152 -25 175 -15
16 -36 25 -55 25 -19 0 -40 -9 -55 -25z"/>
</g>
</svg>
